<?xml version="1.0" encoding="utf-8"?>
<!-- Generator: Adobe Illustrator 16.0.0, SVG Export Plug-In . SVG Version: 6.00 Build 0)  -->
<!DOCTYPE svg PUBLIC "-//W3C//DTD SVG 1.1//EN" "http://www.w3.org/Graphics/SVG/1.1/DTD/svg11.dtd">
<svg version="1.1" id="Layer_1" xmlns="http://www.w3.org/2000/svg" xmlns:xlink="http://www.w3.org/1999/xlink" x="0px" y="0px"
	 width="95.68px" height="95.675px" viewBox="0 0 95.68 95.675" enable-background="new 0 0 95.68 95.675" xml:space="preserve">
<g>
	<g>
		<g>
			<path fill="none" stroke="#E1E6EB" stroke-width="6" stroke-miterlimit="10" d="M92.68,47.838
				c0,24.766-20.077,44.837-44.842,44.837C23.072,92.675,3,72.604,3,47.838C3,23.074,23.072,3,47.838,3
				C72.603,3,92.68,23.074,92.68,47.838z"/>
		</g>
	</g>
	<g>
		<g>
			<path fill="none" stroke="#88D2DB" stroke-width="6" stroke-miterlimit="10" d="M47.838,3C72.603,3,92.68,23.074,92.68,47.838
				c0,24.766-20.077,44.837-44.842,44.837C23.072,92.675,3,72.604,3,47.838c0-13.526,5.988-25.652,15.46-33.873"/>
		</g>
	</g>
	<path fill-rule="evenodd" clip-rule="evenodd" fill="#63535C" d="M35.866,43.351c0,0.697,0,1.291,0,1.888
		c0,2.335-0.018,4.666,0.011,7c0.006,0.608-0.206,0.789-0.797,0.777c-1.492-0.034-2.981-0.028-4.474-0.005
		c-0.506,0.012-0.664-0.169-0.664-0.667c0.005-9.599,0-19.192-0.006-28.79c0-0.344,0.025-0.632,0.464-0.645
		c3.742-0.114,7.5-0.583,11.226,0.069c5.816,1.015,8.654,5.528,8.032,11.259c-0.591,5.476-4.715,8.59-9.632,9.087
		C38.698,43.462,37.341,43.351,35.866,43.351z M35.899,38.535c2.686,0.302,5.274,0.43,6.941-2.186
		c1.304-2.04,1.108-5.562-0.299-7.32c-1.227-1.527-4.353-2.252-6.643-1.522C35.899,31.149,35.899,34.799,35.899,38.535z"/>
	<path fill-rule="evenodd" clip-rule="evenodd" fill="#63535C" d="M51.744,48.76c0-0.621-0.006-1.25,0.005-1.874
		c0.012-0.676,0.184-0.776,0.783-0.421c1.608,0.958,3.326,1.631,5.187,1.857c0.774,0.093,1.582,0.039,2.357-0.079
		c0.621-0.1,1.073-0.537,1.195-1.202c0.127-0.694-0.037-1.325-0.631-1.729c-0.593-0.402-1.237-0.73-1.874-1.068
		c-1.189-0.628-2.416-1.183-3.574-1.863c-2.601-1.531-3.824-3.796-3.369-6.837c0.475-3.128,2.441-4.935,5.381-5.72
		c2.75-0.732,5.433-0.361,8.016,0.813c0.528,0.24,0.764,0.583,0.74,1.17c-0.042,1.108-0.028,2.217-0.051,3.321
		c-0.017,0.76-0.119,0.825-0.797,0.486c-1.702-0.849-3.471-1.467-5.393-1.346c-0.594,0.037-1.244,0.253-1.727,0.589
		c-0.84,0.576-0.896,1.644-0.108,2.289c0.695,0.568,1.541,0.964,2.33,1.41c1.523,0.861,3.128,1.603,4.569,2.579
		c3.521,2.397,2.849,7.858,0.373,10.043c-1.65,1.458-3.605,2.093-5.737,2.241c-2.352,0.158-4.579-0.367-6.687-1.433
		c-0.707-0.352-1.086-0.814-0.998-1.64C51.792,49.826,51.747,49.291,51.744,48.76z"/>
	<g>
		<text transform="matrix(1 0 0 1 20.7529 72.1768)" fill="#63535C" font-family="'Avenir-Black'" font-size="11.3404">Photoshop</text>
	</g>
</g>
</svg>
