<?xml version="1.0" encoding="utf-8"?>
<!-- Generator: Adobe Illustrator 16.0.0, SVG Export Plug-In . SVG Version: 6.00 Build 0)  -->
<!DOCTYPE svg PUBLIC "-//W3C//DTD SVG 1.1//EN" "http://www.w3.org/Graphics/SVG/1.1/DTD/svg11.dtd">
<svg version="1.1" id="Layer_1" xmlns="http://www.w3.org/2000/svg" xmlns:xlink="http://www.w3.org/1999/xlink" x="0px" y="0px"
	 width="95.68px" height="95.675px" viewBox="0 0 95.68 95.675" enable-background="new 0 0 95.68 95.675" xml:space="preserve">
<g>
	<g>
		<g>
			<path fill="none" stroke="#E1E6EB" stroke-width="6" stroke-miterlimit="10" d="M92.68,47.838
				c0,24.766-20.077,44.837-44.842,44.837C23.072,92.675,3,72.604,3,47.838C3,23.074,23.072,3,47.838,3
				C72.603,3,92.68,23.074,92.68,47.838z"/>
		</g>
	</g>
	<g>
		<g>
			<path fill="none" stroke="#88D2DB" stroke-width="6" stroke-miterlimit="10" d="M47.838,3C72.603,3,92.68,23.074,92.68,47.838
				c0,24.766-20.077,44.837-44.842,44.837C23.072,92.675,3,72.604,3,47.838c0-13.526,5.988-25.652,15.46-33.873"/>
		</g>
	</g>
	<g>
		<g>
			<text transform="matrix(1 0 0 1 19.4839 72.5859)" fill="#63535C" font-family="'Avenir-Black'" font-size="13.2709">Ilustrator</text>
		</g>
		<path fill-rule="evenodd" clip-rule="evenodd" fill="#63535C" d="M67.643,53.08c-1.99,0-3.957,0-5.962,0
			c0-7.627,0-15.248,0-22.899c1.982,0,3.957,0,5.962,0C67.643,37.799,67.643,45.41,67.643,53.08z"/>
		<path fill-rule="evenodd" clip-rule="evenodd" fill="#63535C" d="M64.578,21.12c1.688-0.086,3.177,1.259,3.255,2.947
			c0.087,1.736-1.29,3.179-3.094,3.248c-1.577,0.061-3.087-1.272-3.167-2.812C61.469,22.635,62.732,21.216,64.578,21.12z"/>
		<path fill-rule="evenodd" clip-rule="evenodd" fill="#63535C" d="M58.588,53.062c-2.954-9.82-5.773-19.497-8.72-29.314
			c-0.081-0.269-0.196-0.613-0.479-0.611c-2.275,0.01-4.551-0.123-6.825-0.121c-0.098,0-0.196-0.057-0.369-0.043
			c0,0.858,0.012,1.643-0.006,2.466c-0.006,0.279-0.043,0.559-0.121,0.826c-2.448,8.37-4.901,16.73-7.353,25.099
			c-0.164,0.562-0.319,1.118-0.486,1.703c0.133,0.022,0.213,0.043,0.294,0.043c1.67,0.003,3.341-0.003,5.011,0.011
			c0.3,0.004,0.34-0.175,0.403-0.391c0.659-2.293,1.328-4.58,1.981-6.872c0.092-0.322,0.213-0.46,0.584-0.46
			c2.492,0.02,4.98,0.017,7.475,0.002c0.337-0.002,0.46,0.115,0.553,0.429c0.642,2.268,1.432,4.928,2.067,7.194
			C52.598,53.021,58.623,53.18,58.588,53.062z M43.094,41.326c1.022-3,2.031-8.466,3.042-12.371
			c0.037-0.012,0.077,0.287,0.117,0.281c1.011,3.922,2.019,9.089,3.039,12.089C47.21,41.326,45.185,41.326,43.094,41.326z"/>
	</g>
</g>
</svg>
