<?xml version="1.0" encoding="utf-8"?>
<!-- Generator: Adobe Illustrator 16.0.0, SVG Export Plug-In . SVG Version: 6.00 Build 0)  -->
<!DOCTYPE svg PUBLIC "-//W3C//DTD SVG 1.1//EN" "http://www.w3.org/Graphics/SVG/1.1/DTD/svg11.dtd">
<svg version="1.1" id="Layer_1" xmlns="http://www.w3.org/2000/svg" xmlns:xlink="http://www.w3.org/1999/xlink" x="0px" y="0px"
	 width="95.68px" height="95.675px" viewBox="0 0 95.68 95.675" enable-background="new 0 0 95.68 95.675" xml:space="preserve">
<g>
	<g>
		<g>
			<path fill="none" stroke="#E1E6EB" stroke-width="6" stroke-miterlimit="10" d="M92.68,47.838
				c0,24.766-20.077,44.837-44.842,44.837C23.072,92.675,3,72.604,3,47.838C3,23.074,23.072,3,47.838,3
				C72.603,3,92.68,23.074,92.68,47.838z"/>
		</g>
	</g>
	<g>
		<g>
			<path fill="none" stroke="#88D2DB" stroke-width="6" stroke-miterlimit="10" d="M47.838,3C72.603,3,92.68,23.074,92.68,47.838
				c0,24.766-20.077,44.837-44.842,44.837C23.072,92.675,3,72.604,3,47.838c0-13.526,5.988-25.652,15.46-33.873"/>
		</g>
	</g>
	<g>
		<text transform="matrix(1 0 0 1 20.4922 72.0791)" fill="#63535C" font-family="'Avenir-Black'" font-size="13.0414">InDesign</text>
	</g>
	<g>
		<path fill-rule="evenodd" clip-rule="evenodd" fill="#63535C" d="M33.166,53.097c0-10.229,0-20.196,0-30.356
			c1.381,0,2.703-0.06,4.014,0.04c0.327,0.028,0.685,0.525,0.905,0.883c0.136,0.212,0.045,0.574,0.045,0.871
			c0,8.898-0.033,17.794,0.034,26.689c0.009,1.52-0.464,2.054-1.953,1.893C35.243,53.012,34.258,53.097,33.166,53.097z"/>
		<path fill-rule="evenodd" clip-rule="evenodd" fill="#63535C" d="M63.29,24.721c-0.022-4.055,0.747-3.478-3.639-3.567
			c-1.172-0.026-1.549,0.406-1.526,1.559c0.062,3.068,0.026,6.133,0.015,9.197c0,0.49-0.085,0.983-0.142,1.605
			c-0.368-0.209-0.526-0.252-0.611-0.356c-2.553-3.21-9.116-3.45-12.772,0.805c-3.614,4.198-3.73,12.175-0.184,16.429
			c3.537,4.245,9.82,4.253,13.318,0.022c0.192-0.229,0.47-0.383,0.767-0.62c0.778,3.577,0.778,3.58,4.521,3.246
			c0.045-0.008,0.09-0.036,0.282-0.125c0.022-0.218,0.065-0.412,0.065-0.602C63.358,43.117,63.355,33.92,63.29,24.721z
			 M57.822,45.616c-0.561,2.15-2.021,3.508-4.245,3.808c-2.332,0.312-4.239-0.587-5.346-2.661c-1.647-3.088-1.574-6.283,0.087-9.348
			c1.184-2.183,3.526-3.15,5.785-2.618c2.242,0.529,3.912,2.629,4.024,5.086c0.034,0.688,0.009,1.384,0.009,2.071
			c0.042,0.006,0.082,0.009,0.124,0.015C58.128,43.185,58.128,44.441,57.822,45.616z"/>
	</g>
</g>
</svg>
