<?xml version="1.0" encoding="utf-8"?>
<!-- Generator: Adobe Illustrator 16.0.0, SVG Export Plug-In . SVG Version: 6.00 Build 0)  -->
<!DOCTYPE svg PUBLIC "-//W3C//DTD SVG 1.1//EN" "http://www.w3.org/Graphics/SVG/1.1/DTD/svg11.dtd">
<svg version="1.1" id="Layer_1" xmlns="http://www.w3.org/2000/svg" xmlns:xlink="http://www.w3.org/1999/xlink" x="0px" y="0px"
	 width="95.68px" height="95.675px" viewBox="0 0 95.68 95.675" enable-background="new 0 0 95.68 95.675" xml:space="preserve">
<g>
	<g>
		<g>
			<path fill="none" stroke="#E1E6EB" stroke-width="6" stroke-miterlimit="10" d="M92.68,47.838
				c0,24.766-20.078,44.837-44.842,44.837C23.073,92.675,3,72.604,3,47.838C3,23.074,23.073,3,47.837,3
				C72.602,3,92.68,23.074,92.68,47.838z"/>
			<g>
				<path fill="none" stroke="#88D2DB" stroke-width="6" stroke-miterlimit="10" d="M47.837,3C72.602,3,92.68,23.074,92.68,47.838"
					/>
			</g>
		</g>
	</g>
	<g>
		<text transform="matrix(1 0 0 1 19.8237 72.0156)" fill="#63535C" font-family="'Avenir-Black'" font-size="13.0414">Premiere</text>
	</g>
	<path fill-rule="evenodd" clip-rule="evenodd" fill="#63535C" d="M37.606,41.798c0,3.718,0,7.361,0,11.128
		c-1.687,0-3.229,0-4.956,0c-0.03-0.448-0.091-0.931-0.091-1.416c-0.016-9.501,0.004-19.005-0.062-28.506
		c-0.009-1.329,0.373-1.807,1.701-1.769c2.687,0.076,5.392-0.131,8.062,0.091c5.867,0.484,9.352,4.109,9.444,9.556
		c0.1,5.828-3.207,9.736-9.01,10.551C41.1,41.656,39.476,41.671,37.606,41.798z M37.665,37.291c2.043-0.27,3.903-0.382,5.695-0.794
		c1.401-0.323,2.296-1.414,2.795-2.795c1.549-4.291-0.746-7.753-5.274-7.915c-0.71-0.025-1.423,0.046-2.132,0.024
		c-0.756-0.023-1.102,0.251-1.095,1.058C37.68,30.165,37.665,33.461,37.665,37.291z"/>
	<path fill-rule="evenodd" clip-rule="evenodd" fill="#63535C" d="M66.955,29.295c0,1.564,0,2.961,0,4.48
		c-1.299,0.113-2.547,0.261-3.799,0.321c-1.324,0.062-1.945,0.511-1.918,2.024c0.094,5.135,0,10.271,0.051,15.405
		c0.012,1.171-0.287,1.676-1.531,1.565c-1.146-0.099-2.307-0.021-3.537-0.021c-0.041-0.587-0.092-0.98-0.092-1.373
		c-0.021-6.458-0.053-12.915-0.014-19.373c0.004-0.46,0.412-1.191,0.801-1.333C60.086,29.837,63.357,29.187,66.955,29.295z"/>
</g>
</svg>
