<?xml version="1.0" encoding="utf-8"?>
<!-- Generator: Adobe Illustrator 16.0.0, SVG Export Plug-In . SVG Version: 6.00 Build 0)  -->
<!DOCTYPE svg PUBLIC "-//W3C//DTD SVG 1.1//EN" "http://www.w3.org/Graphics/SVG/1.1/DTD/svg11.dtd">
<svg version="1.1" id="Layer_1" xmlns="http://www.w3.org/2000/svg" xmlns:xlink="http://www.w3.org/1999/xlink" x="0px" y="0px"
	 width="95.68px" height="95.675px" viewBox="0 0 95.68 95.675" enable-background="new 0 0 95.68 95.675" xml:space="preserve">
<g>
	<g>
		<g>
			<path fill="none" stroke="#E1E6EB" stroke-width="6" stroke-miterlimit="10" d="M92.68,47.838
				c0,24.766-20.078,44.837-44.842,44.837C23.073,92.675,3,72.604,3,47.838C3,23.074,23.073,3,47.837,3
				C72.602,3,92.68,23.074,92.68,47.838z"/>
			<g>
				<path fill="none" stroke="#88D2DB" stroke-width="6" stroke-miterlimit="10" d="M47.837,3C72.602,3,92.68,23.074,92.68,47.838"
					/>
			</g>
		</g>
	</g>
	<g>
		<text transform="matrix(1 0 0 1 18.0024 71.8398)" fill="#63535C" font-family="'Avenir-Black'" font-size="13.0414">Cinema4D</text>
	</g>
	<g>
		<path fill-rule="evenodd" clip-rule="evenodd" fill="#63535C" d="M32.248,36.637c1.448-1.948,2.896-3.897,4.346-5.846
			c0.213,0.063,0.424,0.126,0.637,0.19c-0.51,5.428,0.237,10.442,4.721,14.048c4.259,3.426,9.141,4.168,14.418,2.868
			c0.09,0.164,0.178,0.331,0.266,0.496c-2.154,1.726-4.309,3.452-6.484,5.195c2.473-0.693,4.484-2.161,6.16-4.136
			c3.229-3.8,4.584-8.348,5.309-13.18c0.295-1.954,0.764-3.921,1.486-5.751c0.311-0.79,1.492-1.755,2.225-1.714
			c0.707,0.04,1.701,1.159,1.967,1.993c2.064,6.542,1.279,12.688-2.883,18.282c-5.334,7.168-14.295,9.875-22.761,6.852
			C33.556,53.044,28.222,44.812,28.7,35.948c0.451-8.369,6.603-15.652,15.005-17.712c3.59-0.881,7.208-0.91,10.721,0.276
			c0.832,0.28,2.006,1.33,1.975,1.975c-0.043,0.867-0.936,2.144-1.756,2.438c-2.271,0.815-4.689,1.237-7.06,1.774
			c-5.018,1.133-9.601,3.091-12.904,7.212c-1.104,1.377-1.82,3.062-2.715,4.604C32.061,36.558,32.154,36.597,32.248,36.637z"/>
		<path fill="#FFFFFF" d="M48.588,57.656c-2.391,0-4.781-0.42-7.104-1.25c-8.312-2.968-13.774-11.392-13.284-20.485
			c0.463-8.591,6.789-16.063,15.385-18.17c3.895-0.955,7.606-0.857,11,0.288c0.963,0.324,2.361,1.506,2.314,2.473
			c-0.055,1.097-1.088,2.525-2.088,2.885c-1.785,0.641-3.672,1.046-5.496,1.438c-0.542,0.116-1.083,0.231-1.622,0.354
			c-4.692,1.06-8.211,2.72-10.863,5.153l0.543,0.162c0.228,0.069,0.376,0.288,0.354,0.525c-0.602,6.406,0.797,10.604,4.536,13.611
			c3.93,3.161,8.626,4.094,13.986,2.772c0.215-0.054,0.451,0.046,0.559,0.247l0.109,0.203c2.143-2.994,3.459-6.668,4.207-11.663
			c0.326-2.166,0.836-4.138,1.516-5.86c0.359-0.914,1.65-2.031,2.645-2.031c1.096,0.06,2.203,1.449,2.488,2.343
			c2.17,6.875,1.174,13.178-2.959,18.732C60.902,54.641,54.988,57.656,48.588,57.656z M48.771,18.097
			c-1.592,0-3.256,0.21-4.947,0.625c-8.171,2.003-14.186,9.098-14.625,17.254c-0.466,8.654,4.725,16.669,12.622,19.489
			c2.215,0.791,4.491,1.191,6.768,1.191c6.08,0,11.703-2.869,15.423-7.871c3.932-5.282,4.877-11.282,2.809-17.833
			c-0.238-0.75-1.109-1.621-1.518-1.645l0,0c-0.52,0-1.496,0.797-1.732,1.398c-0.652,1.652-1.143,3.551-1.457,5.642
			c-0.887,5.918-2.559,10.06-5.422,13.43c-1.844,2.174-4,3.618-6.406,4.293c-0.229,0.064-0.473-0.041-0.58-0.253
			c-0.109-0.212-0.053-0.47,0.133-0.619l5.76-4.614c-5.316,1.088-10.004,0.017-13.96-3.165c-3.914-3.147-5.453-7.454-4.954-13.91
			l-4.034,5.426c-0.138,0.188-0.387,0.254-0.598,0.162l-0.287-0.123c-0.13-0.058-0.229-0.167-0.274-0.303
			c-0.044-0.136-0.028-0.283,0.043-0.406c0.279-0.48,0.54-0.976,0.802-1.47c0.575-1.09,1.17-2.216,1.955-3.195
			c2.945-3.674,7.135-6.021,13.185-7.387c0.542-0.123,1.087-0.24,1.631-0.357c1.793-0.384,3.646-0.782,5.369-1.4
			c0.619-0.223,1.393-1.303,1.428-1.992c0.014-0.301-0.881-1.222-1.637-1.477C52.518,18.396,50.668,18.097,48.771,18.097z"/>
	</g>
	<g>
		<path fill-rule="evenodd" clip-rule="evenodd" fill="#8D8188" d="M58.414,21.884c1.574,1.598,3.609,3.66,5.748,5.831
			c-2.77,2.339-2.893,5.282-3.412,8.097c-0.402,2.17-0.764,4.371-1.445,6.46c-1.398,4.269-3.842,5.775-8.355,5.469
			c-8.628-0.586-14.402-8.125-12.521-16.549c0.25-1.113,1.219-2.569,2.198-2.928c3.854-1.406,7.87-2.357,11.772-3.642
			C54.207,24.024,55.893,23.05,58.414,21.884z"/>
		<path fill="#FFFFFF" d="M52.029,48.278c-0.357,0-0.729-0.013-1.113-0.039c-4.307-0.293-8.182-2.34-10.631-5.617
			c-2.443-3.271-3.275-7.369-2.345-11.54c0.28-1.246,1.357-2.864,2.515-3.288c2.245-0.818,4.574-1.493,6.826-2.146
			c1.633-0.474,3.323-0.962,4.961-1.501c1.17-0.387,2.326-0.955,3.666-1.613c0.695-0.342,1.449-0.712,2.297-1.104
			c0.191-0.088,0.418-0.047,0.566,0.104l5.748,5.831c0.098,0.099,0.148,0.234,0.143,0.373c-0.006,0.14-0.07,0.27-0.178,0.359
			c-2.264,1.911-2.645,4.227-3.049,6.677c-0.062,0.377-0.125,0.754-0.195,1.129L61.1,36.671c-0.348,1.908-0.707,3.882-1.32,5.756
			C58.438,46.528,56.119,48.278,52.029,48.278z M58.307,22.486c-0.713,0.333-1.357,0.65-1.959,0.945
			c-1.371,0.674-2.557,1.257-3.793,1.665c-1.654,0.545-3.354,1.037-4.996,1.513c-2.236,0.647-4.549,1.316-6.762,2.124
			c-0.8,0.293-1.669,1.621-1.881,2.567c-0.867,3.881-0.097,7.689,2.17,10.723c2.273,3.043,5.881,4.945,9.898,5.218
			c4.275,0.286,6.533-1.12,7.844-5.125c0.592-1.811,0.945-3.749,1.289-5.625l0.141-0.771c0.068-0.368,0.129-0.739,0.189-1.11
			c0.395-2.382,0.801-4.842,2.99-6.918L58.307,22.486z"/>
	</g>
</g>
</svg>
