<?xml version="1.0" encoding="utf-8"?>
<!-- Generator: Adobe Illustrator 16.0.0, SVG Export Plug-In . SVG Version: 6.00 Build 0)  -->
<!DOCTYPE svg PUBLIC "-//W3C//DTD SVG 1.1//EN" "http://www.w3.org/Graphics/SVG/1.1/DTD/svg11.dtd">
<svg version="1.1" id="Layer_1" xmlns="http://www.w3.org/2000/svg" xmlns:xlink="http://www.w3.org/1999/xlink" x="0px" y="0px"
	 width="100px" height="100.005px" viewBox="0 0 100 100.005" enable-background="new 0 0 100 100.005" xml:space="preserve">
<g>
	<g>
		<g>
			<g>
				<g>
					<path fill="#63535C" d="M51.022,99.142l9.332-9.331c0.564-0.566,0.564-1.479,0-2.046c-0.564-0.563-1.479-0.563-2.043,0
						l-8.311,8.311l-8.311-8.311c-0.565-0.563-1.48-0.563-2.045,0c-0.282,0.282-0.423,0.653-0.423,1.023s0.141,0.74,0.423,1.022
						l9.332,9.331C49.544,99.705,50.458,99.705,51.022,99.142z"/>
				</g>
			</g>
		</g>
	</g>
</g>
<g>
	<path fill-rule="evenodd" clip-rule="evenodd" fill="#63535C" d="M46.995,80.996c-1.54-0.566-2.447-1.594-2.381-3.436
		c-0.361,0-0.691,0.012-1.02-0.002c-1.748-0.072-2.896-1.221-2.916-2.979c-0.026-2.213-0.015-4.428,0-6.643
		c0.003-0.449-0.079-0.758-0.483-1.059c-1.404-1.043-1.581-3.025-0.381-4.309c0.345-0.371,0.372-0.658,0.249-1.111
		c-0.836-3.084-2.5-5.678-4.722-7.916c-4.845-4.881-7.032-10.715-6.369-17.573c0.947-9.787,9.079-17.852,18.852-18.735
		c10.904-0.985,20.47,5.798,22.809,16.468c1.662,7.585-0.457,14.22-5.906,19.772c-2.25,2.295-3.978,4.906-4.775,8.057
		c-0.072,0.285,0.016,0.725,0.203,0.945c1.213,1.42,1.053,3.291-0.385,4.471c-0.234,0.193-0.416,0.596-0.421,0.902
		c-0.035,2.084-0.087,4.168,0.006,6.248c0.091,2.057-1.222,3.646-3.415,3.477c-0.153-0.012-0.31,0.018-0.526,0.033
		c0.044,1.742-0.822,2.83-2.407,3.389C51.001,80.996,48.999,80.996,46.995,80.996z M54.851,61.548c0.629,0,1.131-0.041,1.623,0.012
		c0.611,0.062,0.847-0.162,1.01-0.766c0.945-3.512,2.816-6.494,5.364-9.072c4.681-4.734,6.594-10.375,5.403-16.957
		c-1.872-10.34-12.306-17.134-22.533-14.578c-6.97,1.744-11.655,6.156-13.59,13.09c-1.963,7.036-0.042,13.169,4.971,18.445
		c1.383,1.457,2.615,3.109,3.65,4.832c0.909,1.512,1.444,3.25,2.164,4.93c0.646,0,1.421,0,2.231,0
		c0-6.203,0.002-12.343-0.004-18.483c0-0.679-0.368-1.114-1.035-1.18c-0.551-0.055-0.969,0.24-1.137,0.786
		c-0.207,0.677,0.127,1.089,0.699,1.406c0.844,0.466,1.096,1.121,0.741,1.803c-0.345,0.664-1.087,0.844-1.919,0.467
		c-1.533-0.7-2.42-2.407-2.092-4.041c0.338-1.684,1.811-2.938,3.514-3c1.658-0.055,3.255,1.088,3.651,2.707
		c0.153,0.627,0.162,1.304,0.163,1.96c0.01,5.586,0.001,11.174,0,16.762c0,0.277,0.025,0.555,0.039,0.816c1.547,0,3.006,0,4.504,0
		c0-0.381,0-0.695,0-1.012c0-5.588-0.002-11.174,0.002-16.763c0.002-0.421,0.021-0.844,0.076-1.259
		c0.31-2.407,2.766-3.84,5.006-2.93c1.445,0.585,2.34,1.962,2.3,3.544c-0.036,1.477-1.042,2.867-2.394,3.314
		c-0.688,0.228-1.325,0-1.621-0.58c-0.318-0.619-0.111-1.283,0.53-1.693c0.132-0.084,0.281-0.146,0.409-0.237
		c0.449-0.331,0.646-0.759,0.441-1.308c-0.2-0.534-0.613-0.809-1.168-0.737c-0.546,0.067-0.91,0.402-0.969,0.981
		c-0.027,0.263-0.03,0.527-0.03,0.791c-0.002,5.667-0.001,11.333-0.001,17.001C54.851,60.886,54.851,61.169,54.851,61.548z
		 M56.735,67.593c-0.184-0.018-0.336-0.035-0.488-0.045c-0.928-0.072-1.491-0.582-1.465-1.324c0.027-0.762,0.585-1.207,1.543-1.225
		c0.527-0.012,1.059,0.025,1.578-0.035c0.174-0.018,0.32-0.268,0.48-0.412c-0.158-0.145-0.298-0.334-0.484-0.42
		c-0.153-0.07-0.361-0.025-0.547-0.025c-4.873,0-9.748,0-14.621,0.002c-0.263,0-0.536-0.008-0.779,0.068
		c-0.137,0.043-0.308,0.25-0.308,0.379c0.001,0.133,0.171,0.334,0.308,0.381c0.215,0.072,0.466,0.057,0.701,0.057
		c2.846,0.004,5.691-0.002,8.537,0.008c0.336,0,0.699,0.008,1.004,0.131c0.576,0.23,0.838,0.715,0.729,1.334
		c-0.13,0.736-0.646,1.072-1.353,1.078c-1.766,0.016-3.53,0.004-5.297,0.004c-0.992-0.002-1.984,0-3.006,0c0,0.846,0,1.596,0,2.395
		c4.506,0,8.965,0,13.467,0C56.735,69.132,56.735,68.378,56.735,67.593z M43.231,72.623c0,0.643-0.051,1.248,0.028,1.836
		c0.026,0.201,0.376,0.514,0.579,0.516c4.109,0.031,8.218,0.033,12.326,0.004c0.204,0,0.553-0.312,0.579-0.514
		c0.079-0.59,0.028-1.197,0.028-1.842C52.231,72.623,47.771,72.623,43.231,72.623z M49.995,78.449c0.711,0,1.424,0.033,2.131-0.018
		c0.232-0.02,0.445-0.26,0.67-0.398c-0.207-0.156-0.41-0.441-0.621-0.447c-1.445-0.037-2.895-0.037-4.34,0
		c-0.214,0.006-0.42,0.283-0.63,0.438c0.22,0.143,0.432,0.389,0.661,0.406C48.571,78.484,49.284,78.449,49.995,78.449z"/>
	<path fill-rule="evenodd" clip-rule="evenodd" fill="#63535C" d="M50.474,0c0.671,0.47,0.824,1.126,0.812,1.913
		c-0.035,2.345-0.008,4.688-0.014,7.033c-0.002,1.007-0.458,1.598-1.23,1.621c-0.801,0.028-1.311-0.589-1.313-1.621
		c-0.007-2.345,0.021-4.688-0.015-7.033C48.702,1.126,48.853,0.469,49.526,0C49.843,0,50.157,0,50.474,0z"/>
	<path fill-rule="evenodd" clip-rule="evenodd" fill="#63535C" d="M9.502,40.023c0.468-0.671,1.125-0.822,1.913-0.811
		c2.37,0.034,4.741-0.018,7.11,0.038c0.44,0.01,0.995,0.254,1.27,0.581c0.221,0.264,0.267,0.928,0.082,1.211
		c-0.231,0.352-0.771,0.677-1.193,0.697c-1.683,0.077-3.37,0.032-5.056,0.032c-0.737,0-1.477-0.035-2.211,0.009
		c-0.789,0.048-1.444-0.138-1.914-0.808C9.502,40.657,9.502,40.34,9.502,40.023z"/>
	<path fill-rule="evenodd" clip-rule="evenodd" fill="#63535C" d="M90.497,40.974c-0.468,0.67-1.125,0.823-1.912,0.81
		c-2.344-0.032-4.689,0.008-7.031-0.029c-0.418-0.007-0.963-0.123-1.207-0.402c-0.258-0.294-0.363-0.865-0.291-1.272
		c0.107-0.611,0.649-0.854,1.26-0.854c1.553-0.004,3.107,0,4.662,0c0.868,0,1.74,0.035,2.606-0.01
		c0.788-0.041,1.444,0.139,1.913,0.809C90.497,40.34,90.497,40.657,90.497,40.974z"/>
	<path fill-rule="evenodd" clip-rule="evenodd" fill="#63535C" d="M29.379,18.454c-0.326,0.413-0.545,0.956-0.896,1.062
		c-0.426,0.13-1.085,0.047-1.43-0.221c-0.805-0.627-1.483-1.417-2.209-2.144c-1.082-1.079-2.167-2.156-3.243-3.242
		c-0.698-0.706-0.779-1.455-0.241-2.015c0.558-0.58,1.339-0.503,2.071,0.225c1.719,1.711,3.438,3.42,5.136,5.15
		C28.866,17.575,29.06,17.979,29.379,18.454z"/>
	<path fill-rule="evenodd" clip-rule="evenodd" fill="#63535C" d="M72.003,19.857c-0.389-0.308-0.896-0.513-1.01-0.852
		c-0.137-0.404-0.081-1.012,0.145-1.372c0.356-0.567,0.922-1.004,1.405-1.487c1.396-1.399,2.788-2.802,4.194-4.188
		c0.475-0.468,1.043-0.617,1.652-0.255c0.518,0.307,0.699,0.799,0.545,1.356c-0.078,0.288-0.273,0.573-0.487,0.789
		c-1.758,1.78-3.524,3.554-5.312,5.307C72.853,19.434,72.448,19.586,72.003,19.857z"/>
	<path fill-rule="evenodd" clip-rule="evenodd" fill="#63535C" d="M27.728,61.3c1.133,0.006,1.736,0.973,1.34,1.809
		c-0.077,0.162-0.193,0.316-0.321,0.447c-1.822,1.83-3.644,3.658-5.476,5.477c-0.475,0.469-1.039,0.625-1.651,0.268
		c-0.554-0.324-0.716-0.848-0.541-1.43c0.085-0.283,0.303-0.553,0.52-0.771c1.723-1.742,3.45-3.479,5.201-5.191
		C27.102,61.611,27.52,61.433,27.728,61.3z"/>
	<path fill-rule="evenodd" clip-rule="evenodd" fill="#63535C" d="M78.989,68.005c-0.028,1.215-1.047,1.787-1.885,1.305
		c-0.224-0.131-0.418-0.32-0.604-0.504c-1.7-1.693-3.396-3.387-5.089-5.086c-0.728-0.732-0.802-1.521-0.22-2.074
		c0.565-0.535,1.311-0.449,2.02,0.256c1.737,1.729,3.477,3.455,5.191,5.205C78.697,67.408,78.874,67.822,78.989,68.005z"/>
	<path fill-rule="evenodd" clip-rule="evenodd" fill="#63535C" d="M50.011,44.066c0.267,0.021,0.561,0.013,0.84,0.074
		c0.58,0.126,0.906,0.524,0.956,1.104c0.051,0.576-0.187,1.126-0.753,1.23c-0.676,0.127-1.406,0.125-2.085,0.009
		c-0.572-0.099-0.821-0.642-0.778-1.216c0.046-0.608,0.387-1.024,1.012-1.137C49.46,44.085,49.726,44.088,50.011,44.066z"/>
</g>
</svg>
