<?xml version="1.0" encoding="utf-8"?>
<!-- Generator: Adobe Illustrator 16.0.0, SVG Export Plug-In . SVG Version: 6.00 Build 0)  -->
<!DOCTYPE svg PUBLIC "-//W3C//DTD SVG 1.1//EN" "http://www.w3.org/Graphics/SVG/1.1/DTD/svg11.dtd">
<svg version="1.1" id="Layer_1" xmlns="http://www.w3.org/2000/svg" xmlns:xlink="http://www.w3.org/1999/xlink" x="0px" y="0px"
	 width="95.68px" height="95.675px" viewBox="0 0 95.68 95.675" enable-background="new 0 0 95.68 95.675" xml:space="preserve">
<g>
	<g>
		<g>
			<path fill="none" stroke="#E1E6EB" stroke-width="6" stroke-miterlimit="10" d="M92.68,47.838
				c0,24.766-20.078,44.837-44.842,44.837C23.073,92.675,3,72.604,3,47.838C3,23.074,23.073,3,47.837,3
				C72.602,3,92.68,23.074,92.68,47.838z"/>
			<g>
				<path fill="none" stroke="#88D2DB" stroke-width="6" stroke-miterlimit="10" d="M47.837,3C72.602,3,92.68,23.074,92.68,47.838"
					/>
			</g>
		</g>
	</g>
	<g>
		<text transform="matrix(1 0 0 1 16.2896 72.4473)" fill="#63535C" font-family="'Avenir-Black'" font-size="11.3404">AfterEffects</text>
	</g>
	<g>
		<path fill-rule="evenodd" clip-rule="evenodd" fill="#63535C" d="M50.143,51.921c-1.619,0-3.035,0.069-4.438-0.049
			c-0.36-0.029-0.847-0.594-0.973-1.006c-0.656-2.155-1.177-4.353-1.843-6.506c-0.134-0.434-0.684-1.034-1.058-1.047
			c-2.693-0.09-5.39-0.048-8.212-0.048c-0.666,2.507-1.35,4.942-1.948,7.399c-0.219,0.902-0.587,1.354-1.581,1.285
			c-1.107-0.075-2.226-0.019-3.579-0.019c0.755-2.698,1.427-5.145,2.121-7.583c1.88-6.599,3.77-13.195,5.653-19.794
			c0.107-0.378,0.222-0.754,0.303-1.137c0.488-2.276,0.484-2.277,2.886-2.282c3.752-0.007,3.742-0.005,4.772,3.52
			c2.489,8.513,4.989,17.023,7.478,25.537C49.871,50.689,49.971,51.203,50.143,51.921z M41.433,38.602
			c-1.108-4.222-2.191-8.338-3.344-12.725c-1.122,4.401-2.167,8.498-3.244,12.725C37.119,38.602,39.198,38.602,41.433,38.602z"/>
		<path fill-rule="evenodd" clip-rule="evenodd" fill="#63535C" d="M56.621,41.591c-0.184,3.65,1.662,6.003,5.01,6.216
			c1.871,0.119,3.771-0.247,5.82-0.406c0,0.949,0.074,2.071-0.043,3.174c-0.037,0.358-0.51,0.809-0.889,0.974
			c-7.357,3.219-14.629-1.319-15.023-9.321c-0.139-2.786,0.107-5.49,1.318-8.048c1.91-4.035,5.713-6.04,9.871-5.201
			c3.668,0.74,6.154,3.976,6.402,8.329c0.236,4.146,0.223,4.192-3.844,4.273C62.404,41.637,59.561,41.591,56.621,41.591z
			 M64.225,37.659c0.127-1.752-0.203-3.233-1.662-4.209c-1.148-0.768-2.467-0.807-3.635-0.112c-1.592,0.943-2.227,2.467-2.217,4.321
			C59.254,37.659,61.688,37.659,64.225,37.659z"/>
	</g>
</g>
</svg>
