<?xml version="1.0" encoding="utf-8"?>
<!-- Generator: Adobe Illustrator 16.0.0, SVG Export Plug-In . SVG Version: 6.00 Build 0)  -->
<!DOCTYPE svg PUBLIC "-//W3C//DTD SVG 1.1//EN" "http://www.w3.org/Graphics/SVG/1.1/DTD/svg11.dtd">
<svg version="1.1" id="Layer_1" xmlns="http://www.w3.org/2000/svg" xmlns:xlink="http://www.w3.org/1999/xlink" x="0px" y="0px"
	 width="73.872px" height="73.878px" viewBox="0 0 73.872 73.878" enable-background="new 0 0 73.872 73.878" xml:space="preserve">
<path fill="none" stroke="#A91F6A" stroke-width="2" stroke-miterlimit="10" d="M72.872,36.94c0,19.846-16.088,35.938-35.937,35.938
	C17.088,72.878,1,56.786,1,36.94C1,17.096,17.088,1,36.935,1C56.784,1,72.872,17.096,72.872,36.94z"/>
<g>
	<path fill="#A91F6A" stroke="#A91F6A" stroke-miterlimit="10" d="M18.999,57.226h38.314v1.756H18.999V57.226z M18.999,33.206
		l18.279,19.635l20.035-21.503v2.512L37.277,55.356L18.999,35.715V33.206z"/>
	<path fill="#A91F6A" stroke="#A91F6A" stroke-miterlimit="10" d="M57.273,27.464v5.412H19.04v-5.412
		c0-5.42,1.929-10.008,5.79-13.768c3.86-3.761,8.3-5.642,13.326-5.642c5.028,0,9.471,1.881,13.33,5.642
		C55.342,17.456,57.273,22.044,57.273,27.464z M55.631,27.464c0-4.931-1.749-9.116-5.263-12.561
		c-3.516-3.438-7.583-5.159-12.213-5.159c-4.627,0-8.691,1.722-12.205,5.159c-3.511,3.444-5.271,7.63-5.271,12.561v3.723h34.952
		V27.464z"/>
</g>
</svg>
