<?xml version="1.0" encoding="utf-8"?>
<!-- Generator: Adobe Illustrator 16.0.0, SVG Export Plug-In . SVG Version: 6.00 Build 0)  -->
<!DOCTYPE svg PUBLIC "-//W3C//DTD SVG 1.1//EN" "http://www.w3.org/Graphics/SVG/1.1/DTD/svg11.dtd">
<svg version="1.1" id="Layer_1" xmlns="http://www.w3.org/2000/svg" xmlns:xlink="http://www.w3.org/1999/xlink" x="0px" y="0px"
	 width="100px" height="100.005px" viewBox="0 0 100 100.005" enable-background="new 0 0 100 100.005" xml:space="preserve">
<g>
	<g>
		<g>
			<g>
				<g>
					<path fill="#63535C" d="M51.022,99.142l9.332-9.331c0.564-0.566,0.564-1.479,0-2.046c-0.564-0.563-1.479-0.563-2.043,0
						l-8.311,8.311l-8.311-8.311c-0.565-0.563-1.48-0.563-2.045,0c-0.282,0.282-0.423,0.653-0.423,1.023s0.141,0.74,0.423,1.022
						l9.332,9.331C49.544,99.705,50.458,99.705,51.022,99.142z"/>
				</g>
			</g>
		</g>
	</g>
	<g>
		<g>
			<path fill="#63535C" d="M65.997,0.442c-5.893,0-11.436,2.297-15.602,6.464l-0.395,0.394l-0.396-0.394
				c-4.166-4.167-9.707-6.464-15.602-6.464c-12.166,0-22.064,9.9-22.064,22.064c0,5.894,2.295,11.435,6.466,15.605l28.563,28.445
				c1.146,1.143,1.805,2.729,1.805,4.349v5.661h2.455v-5.661c0-2.27-0.92-4.485-2.526-6.088L20.138,36.374
				c-3.704-3.705-5.744-8.63-5.744-13.867c0-10.812,8.796-19.608,19.609-19.608c5.238,0,10.162,2.042,13.865,5.745l2.133,2.129
				l2.131-2.129c3.704-3.703,8.629-5.745,13.865-5.745c10.812,0,19.609,8.797,19.609,19.608c0,5.237-2.039,10.162-5.744,13.866
				L59.507,56.729c-0.915,0.916-2.135,1.42-3.43,1.42c-2.674,0-4.85-2.176-4.85-4.848V38.505h3.684
				c11.51,0,20.873-9.362,20.873-20.873v-1.229h-6.139c-9.057,0-16.762,5.811-19.645,13.889
				c-2.883-8.078-10.59-13.889-19.645-13.889h-6.14v1.229c0,11.511,9.362,20.873,20.872,20.873h3.684v14.796
				c0,4.026,3.277,7.304,7.305,7.304c1.951,0,3.785-0.761,5.166-2.14l20.355-20.357c4.168-4.167,6.463-9.708,6.463-15.602
				C88.062,10.342,78.163,0.442,65.997,0.442z M69.646,18.859h3.643c-0.636,9.585-8.635,17.19-18.377,17.19h-3.643
				C51.903,26.463,59.901,18.859,69.646,18.859z M45.089,36.049c-9.742,0-17.741-7.605-18.376-17.19h3.644
				c9.741,0,17.74,7.604,18.375,17.19H45.089z"/>
		</g>
	</g>
</g>
</svg>
