<?xml version="1.0" encoding="utf-8"?>
<!-- Generator: Adobe Illustrator 16.0.0, SVG Export Plug-In . SVG Version: 6.00 Build 0)  -->
<!DOCTYPE svg PUBLIC "-//W3C//DTD SVG 1.1//EN" "http://www.w3.org/Graphics/SVG/1.1/DTD/svg11.dtd">
<svg version="1.1" id="Layer_1" xmlns="http://www.w3.org/2000/svg" xmlns:xlink="http://www.w3.org/1999/xlink" x="0px" y="0px"
	 width="95.68px" height="95.675px" viewBox="0 0 95.68 95.675" enable-background="new 0 0 95.68 95.675" xml:space="preserve">
<g>
	<g>
		<path fill="none" stroke="#E1E6EB" stroke-width="6" stroke-miterlimit="10" d="M92.678,47.834
			c0,24.764-20.076,44.838-44.837,44.838c-24.763,0-44.838-20.074-44.838-44.838c0-24.759,20.075-44.831,44.838-44.831
			C72.602,3.003,92.678,23.075,92.678,47.834z"/>
		<g>
			<path fill="none" stroke="#BB438A" stroke-width="6" stroke-miterlimit="10" d="M47.84,3.005
				c24.761,0,44.837,20.071,44.837,44.833c0,24.766-20.076,44.834-44.837,44.834"/>
		</g>
	</g>
	<text transform="matrix(1 0 0 1 26.394 76.6035)" fill="#63535C" font-family="'Avenir-Black'" font-size="12.1658">GitHub</text>
	<g>
		<path fill="#63535C" d="M46.716,14.286c0.746,0,1.489,0,2.231,0c0.232,0.031,0.459,0.056,0.688,0.094
			c1.609,0.282,3.26,0.422,4.824,0.871c5.256,1.503,9.492,4.512,12.701,8.941c2.412,3.323,3.867,7.021,4.332,11.113
			c0.396,3.496,0.15,6.948-1.004,10.269c-2.256,6.491-6.453,11.305-12.734,14.221c-0.811,0.375-1.648,0.68-2.479,1.02
			c-0.217,0-0.434,0-0.65,0c-0.666-0.264-0.889-0.779-0.881-1.469c0.012-1.984,0.02-3.971-0.008-5.951
			c-0.006-0.727-0.072-1.457-0.186-2.174c-0.158-0.979-0.633-1.826-1.377-2.551c0.184-0.045,0.303-0.074,0.418-0.1
			c0.092-0.016,0.186-0.021,0.273-0.033c1.545-0.203,3.045-0.535,4.465-1.197c2.146-1.001,3.793-2.475,4.674-4.728
			c0.523-1.319,0.811-2.688,0.945-4.099c0.275-2.875-0.207-5.521-2.158-7.772c-0.105-0.118-0.156-0.37-0.105-0.519
			c0.658-1.962,0.451-3.876-0.277-5.766c-0.053-0.142-0.279-0.312-0.414-0.308c-0.521,0.021-1.061,0.043-1.555,0.187
			c-1.539,0.456-2.941,1.207-4.301,2.058c-0.199,0.13-0.529,0.192-0.76,0.134c-3.697-0.93-7.384-0.93-11.079-0.004
			c-0.232,0.057-0.541-0.009-0.766-0.121c-1.163-0.568-2.3-1.205-3.476-1.75c-0.754-0.353-1.565-0.607-2.424-0.505
			c-0.138,0.016-0.338,0.12-0.382,0.23c-0.708,1.874-0.956,3.776-0.287,5.718c0.104,0.305,0.06,0.5-0.147,0.738
			c-1.04,1.192-1.692,2.573-1.991,4.13c-0.259,1.337-0.217,2.682-0.065,4.025c0.209,1.896,0.72,3.714,1.796,5.309
			c1.468,2.164,3.658,3.234,6.103,3.851c0.903,0.232,1.832,0.352,2.806,0.533c-0.837,0.834-1.267,1.824-1.444,2.938
			c-0.018,0.111-0.136,0.254-0.24,0.299c-1.181,0.51-2.42,0.689-3.678,0.449c-1.272-0.246-2.177-1.078-2.836-2.162
			c-0.604-1.008-1.359-1.844-2.426-2.363c-0.676-0.33-1.38-0.554-2.149-0.348c-0.361,0.098-0.479,0.303-0.213,0.602
			c0.256,0.285,0.544,0.535,0.825,0.799c0.459,0.43,1.011,0.797,1.362,1.299c0.51,0.732,0.871,1.564,1.298,2.348
			c0.186,0.336,0.347,0.695,0.584,0.998c1.021,1.295,2.466,1.717,4.025,1.779c1.088,0.045,2.184-0.02,3.324-0.033
			c0.003,0.076,0.018,0.242,0.018,0.406c0.015,1.197,0.013,2.389,0.044,3.582c0.021,0.729-0.217,1.264-0.92,1.541
			c-0.219,0-0.436,0-0.651,0c-0.068-0.035-0.133-0.076-0.204-0.1c-2.56-0.891-4.955-2.104-7.064-3.82
			c-4.648-3.783-7.663-8.561-8.735-14.5c-0.155-0.863-0.251-1.739-0.375-2.609c0-1.12,0-2.236,0-3.352
			c0.029-0.134,0.073-0.265,0.093-0.398c0.12-0.858,0.187-1.727,0.356-2.573c1.122-5.546,3.877-10.133,8.228-13.731
			c3.39-2.803,7.267-4.555,11.639-5.165C45.117,14.454,45.917,14.379,46.716,14.286z"/>
	</g>
</g>
</svg>
