<?xml version="1.0" encoding="utf-8"?>
<!-- Generator: Adobe Illustrator 16.0.0, SVG Export Plug-In . SVG Version: 6.00 Build 0)  -->
<!DOCTYPE svg PUBLIC "-//W3C//DTD SVG 1.1//EN" "http://www.w3.org/Graphics/SVG/1.1/DTD/svg11.dtd">
<svg version="1.1" id="Layer_1" xmlns="http://www.w3.org/2000/svg" xmlns:xlink="http://www.w3.org/1999/xlink" x="0px" y="0px"
	 width="95.68px" height="95.675px" viewBox="0 0 95.68 95.675" enable-background="new 0 0 95.68 95.675" xml:space="preserve">
<g>
	<path fill-rule="evenodd" clip-rule="evenodd" fill="#63535C" d="M31.865,41.3c10.674,0,21.331,0,32.045,0
		c-0.041,0.537-0.07,1.046-0.119,1.555c-0.367,4.11-0.744,8.225-1.109,12.34c-0.285,3.143-0.551,6.287-0.83,9.432
		c-0.266,3.012-0.539,6.023-0.803,9.037c-0.023,0.273-0.119,0.412-0.396,0.49c-4.178,1.146-8.35,2.305-12.53,3.453
		c-0.174,0.047-0.379,0.047-0.551,0c-4.15-1.143-8.293-2.299-12.439-3.439c-0.314-0.088-0.424-0.229-0.451-0.539
		c-0.342-3.953-0.699-7.904-1.051-11.857c-0.334-3.807-0.664-7.613-1-11.42c-0.25-2.805-0.51-5.609-0.766-8.413
		C31.849,41.746,31.865,41.554,31.865,41.3z M37.759,47.947c0.012,0.209,0.014,0.383,0.027,0.553c0.137,1.5,0.275,2.996,0.412,4.494
		c0.201,2.221,0.408,4.438,0.586,6.656c0.033,0.416,0.158,0.527,0.578,0.527c4.27-0.014,8.537-0.004,12.805,0
		c0.172,0,0.346,0,0.578,0c-0.039,0.477-0.072,0.9-0.109,1.318c-0.094,1.117-0.197,2.232-0.283,3.35
		c-0.025,0.34-0.164,0.512-0.506,0.596c-1.256,0.316-2.502,0.666-3.758,0.99c-0.156,0.043-0.346,0.047-0.508,0.006
		c-1.281-0.332-2.561-0.691-3.844-1.025c-0.254-0.066-0.369-0.17-0.379-0.441c-0.016-0.457-0.061-0.91-0.102-1.365
		c-0.047-0.496-0.102-0.986-0.152-1.465c-1.4,0-2.73,0-4.064,0c-0.01,0.084-0.023,0.127-0.02,0.168
		c0.172,1.957,0.35,3.91,0.514,5.867c0.025,0.285,0.186,0.352,0.416,0.416c2.529,0.697,5.055,1.406,7.582,2.098
		c0.199,0.055,0.445,0.07,0.645,0.014c2.542-0.695,5.077-1.41,7.62-2.1c0.275-0.076,0.379-0.225,0.402-0.49
		c0.119-1.412,0.244-2.82,0.369-4.232c0.168-1.877,0.34-3.754,0.506-5.635c0.061-0.711,0.117-1.426,0.178-2.188
		c-4.918,0-9.786,0-14.674,0c-0.123-1.357-0.24-2.676-0.365-4.045c5.148,0,10.266,0,15.407,0c0.123-1.381,0.244-2.709,0.367-4.066
		C51.221,47.947,44.511,47.947,37.759,47.947z"/>
	<g>
		<path fill="none" stroke="#E1E6EB" stroke-width="6" stroke-miterlimit="10" d="M92.678,47.834
			c0,24.764-20.076,44.838-44.837,44.838c-24.763,0-44.838-20.074-44.838-44.838c0-24.759,20.075-44.831,44.838-44.831
			C72.602,3.003,92.678,23.075,92.678,47.834z"/>
		<g>
			<path fill="none" stroke="#BB438A" stroke-width="6" stroke-miterlimit="10" d="M47.84,3.005
				c24.761,0,44.837,20.071,44.837,44.833c0,24.766-20.076,44.834-44.837,44.834"/>
		</g>
	</g>
	<path fill-rule="evenodd" clip-rule="evenodd" fill="#63535C" d="M59.631,19.846c0.16,1.169,0.316,2.336,0.504,3.705
		c-1.883,0-3.443,0-5.322,0c1.623,1.824,3.131,3.314,4.367,5.001c0.717,0.976,0.988,2.27,1.594,3.743c-4.527,0-8.434,0-12.473,0
		c0-0.977,0-1.976,0-3.116c1.706,0,3.409,0,5.526,0c-1.459-1.702-2.547-3.28-3.939-4.517c-1.815-1.605-2.204-2.475-1.354-4.816
		C52.234,19.846,55.932,19.846,59.631,19.846z"/>
	<path fill-rule="evenodd" clip-rule="evenodd" fill="#63535C" d="M46.488,20.077c0,4.266,0,8.179,0,12.215c-3.23,0-6.389,0-9.666,0
		c0-1.184,0-2.376,0-3.787c1.76,0,3.51,0,5.467,0c0-2.288,0.115-4.367-0.037-6.426c-0.125-1.678,0.492-2.225,2.078-2.016
		C44.98,20.146,45.654,20.077,46.488,20.077z"/>
</g>
</svg>
