<?xml version="1.0" encoding="utf-8"?>
<!-- Generator: Adobe Illustrator 16.0.0, SVG Export Plug-In . SVG Version: 6.00 Build 0)  -->
<!DOCTYPE svg PUBLIC "-//W3C//DTD SVG 1.1//EN" "http://www.w3.org/Graphics/SVG/1.1/DTD/svg11.dtd">
<svg version="1.1" id="Layer_1" xmlns="http://www.w3.org/2000/svg" xmlns:xlink="http://www.w3.org/1999/xlink" x="0px" y="0px"
	 width="95.68px" height="95.675px" viewBox="0 0 95.68 95.675" enable-background="new 0 0 95.68 95.675" xml:space="preserve">
<g>
	<g>
		<path fill="none" stroke="#E1E6EB" stroke-width="6" stroke-miterlimit="10" d="M92.678,47.834
			c0,24.764-20.076,44.838-44.837,44.838c-24.763,0-44.838-20.074-44.838-44.838c0-24.759,20.075-44.831,44.838-44.831
			C72.602,3.003,92.678,23.075,92.678,47.834z"/>
		<g>
			<path fill="none" stroke="#BB438A" stroke-width="6" stroke-miterlimit="10" d="M47.84,3.005
				c24.761,0,44.837,20.071,44.837,44.833"/>
		</g>
	</g>
	<text transform="matrix(1 0 0 1 21.6724 77.1016)" fill="#63535C" font-family="'Avenir-Black'" font-size="14.4654">Node.js</text>
	<g>
		<path fill-rule="evenodd" clip-rule="evenodd" fill="#63535C" d="M48.346,61.76c-2.135-1.143-4.186-2.438-6.275-3.66
			c-0.112-0.064-0.231-0.125-0.338-0.201c-0.139-0.098-0.339-0.186-0.31-0.387c0.027-0.203,0.245-0.232,0.404-0.285
			c0.729-0.244,1.438-0.535,2.092-0.941c0.367-0.229,0.671-0.197,1.027,0.021c1.216,0.742,2.452,1.447,3.664,2.193
			c0.401,0.248,0.719,0.27,1.141,0.023c5.355-3.113,10.721-6.213,16.088-9.303c0.391-0.225,0.545-0.49,0.545-0.943
			c-0.012-6.222-0.014-12.446,0-18.667c0-0.453-0.156-0.726-0.541-0.948c-5.387-3.106-10.768-6.219-16.145-9.338
			c-0.373-0.216-0.674-0.185-1.036,0.024c-5.34,3.1-10.681,6.193-16.032,9.271c-0.462,0.266-0.618,0.58-0.616,1.102
			c0.017,6.158,0.016,12.314,0,18.471c-0.001,0.498,0.146,0.803,0.591,1.051c1.323,0.729,2.622,1.5,3.926,2.262
			c0.516,0.301,1.063,0.516,1.65,0.615c1.434,0.246,2.639-0.732,2.659-2.186c0.021-1.557,0.006-3.113,0.006-4.667
			c0-4.624-0.002-9.246,0-13.871c0-0.874,0.058-0.93,0.937-0.932c0.393,0,0.788,0,1.183,0c0.9,0.002,0.939,0.037,0.939,0.917
			c0.002,2.827,0.001,5.653,0.001,8.48c0,3.265,0.003,6.529-0.002,9.793c0,0.656-0.005,1.311-0.15,1.961
			c-0.484,2.158-2.065,3.447-4.281,3.582c-1.644,0.104-3.113-0.365-4.514-1.145c-0.992-0.553-1.953-1.172-2.964-1.693
			c-1.312-0.678-2.459-1.492-2.976-2.959c0-6.967,0-13.936,0-20.904c0.43-0.938,0.931-1.794,1.883-2.342
			c5.446-3.132,10.877-6.287,16.312-9.438c1.332-0.773,2.647-0.771,3.981,0.003c5.414,3.143,10.83,6.28,16.248,9.413
			c1.312,0.761,1.947,1.883,1.945,3.403c-0.012,6.266-0.012,12.531,0,18.797c0.004,1.551-0.652,2.678-1.99,3.441
			c-1.842,1.057-3.666,2.143-5.516,3.188c-3.992,2.254-7.865,4.715-11.957,6.797C49.398,61.76,48.873,61.76,48.346,61.76z"/>
		<path fill-rule="evenodd" clip-rule="evenodd" fill="#63535C" d="M54.076,48.225c-1.832-0.035-3.809-0.217-5.631-1.153
			c-1.902-0.975-2.875-2.562-2.981-4.685c-0.034-0.698,0.115-0.832,0.834-0.849c0.108-0.002,0.22-0.005,0.327,0.001
			c0.545,0.029,1.124-0.138,1.629,0.08c0.602,0.258,0.394,0.959,0.592,1.447c0.385,0.951,1.064,1.563,2.025,1.809
			c2.201,0.559,4.422,0.589,6.625,0.03c0.943-0.241,1.645-0.794,1.82-1.85c0.154-0.948-0.104-1.519-0.986-1.905
			c-1.197-0.524-2.486-0.667-3.768-0.825c-1.65-0.2-3.316-0.308-4.916-0.795c-1.699-0.518-3.091-1.384-3.504-3.269
			c-0.556-2.539,0.632-4.772,3.065-5.791c1.951-0.815,3.996-0.896,6.068-0.724c1.471,0.125,2.9,0.407,4.186,1.2
			c1.656,1.022,2.332,2.599,2.545,4.443c0.053,0.446-0.186,0.665-0.604,0.675c-0.637,0.017-1.271,0.013-1.906,0.003
			c-0.346-0.005-0.535-0.173-0.648-0.525c-0.654-2.028-1.58-2.705-3.727-2.856c-1.275-0.09-2.541-0.111-3.791,0.174
			c-1.264,0.288-1.895,0.928-1.951,1.902c-0.053,0.913,0.172,1.282,1.037,1.587c1.078,0.38,2.209,0.523,3.336,0.689
			c1.752,0.258,3.52,0.432,5.225,0.937c2.41,0.71,3.547,1.94,3.689,3.974c0.166,2.396-0.896,4.236-3.043,5.259
			C57.922,48.021,56.104,48.209,54.076,48.225z"/>
	</g>
</g>
</svg>
