<?xml version="1.0" encoding="utf-8"?>
<!-- Generator: Adobe Illustrator 16.0.0, SVG Export Plug-In . SVG Version: 6.00 Build 0)  -->
<!DOCTYPE svg PUBLIC "-//W3C//DTD SVG 1.1//EN" "http://www.w3.org/Graphics/SVG/1.1/DTD/svg11.dtd">
<svg version="1.1" id="Layer_1" xmlns="http://www.w3.org/2000/svg" xmlns:xlink="http://www.w3.org/1999/xlink" x="0px" y="0px"
	 width="100px" height="100.005px" viewBox="0 0 100 100.005" enable-background="new 0 0 100 100.005" xml:space="preserve">
<g>
	<g>
		<g>
			<g>
				<g>
					<path fill="#63535C" d="M51.022,99.142l9.332-9.331c0.564-0.566,0.564-1.479,0-2.046c-0.564-0.563-1.479-0.563-2.043,0
						l-8.311,8.311l-8.311-8.311c-0.565-0.563-1.48-0.563-2.045,0c-0.282,0.282-0.423,0.653-0.423,1.023s0.141,0.74,0.423,1.022
						l9.332,9.331C49.544,99.705,50.458,99.705,51.022,99.142z"/>
				</g>
			</g>
		</g>
	</g>
	<g>
		<g>
			<g>
				<path fill="#63535C" d="M71.689,29.502l-8.946-8.946c-0.542-0.539-1.418-0.539-1.96,0c-0.54,0.539-0.54,1.418,0,1.958
					l7.968,7.968l-7.968,7.967c-0.54,0.542-0.54,1.419,0,1.961c0.271,0.269,0.626,0.403,0.979,0.403c0.355,0,0.709-0.135,0.98-0.403
					l8.946-8.947C72.229,30.92,72.229,30.043,71.689,29.502z"/>
			</g>
		</g>
		<g>
			<g>
				<path fill="#63535C" d="M31.25,30.481l7.967-7.968c0.54-0.54,0.54-1.419,0-1.959c-0.542-0.54-1.418-0.54-1.959,0l-8.946,8.947
					c-0.542,0.541-0.542,1.418,0,1.958l8.946,8.947c0.27,0.27,0.625,0.405,0.979,0.405c0.355,0,0.709-0.136,0.98-0.405
					c0.54-0.541,0.54-1.419,0-1.959L31.25,30.481z"/>
			</g>
		</g>
		<g>
			<g>
				<path fill="#63535C" d="M53.141,16.196c-0.73-0.232-1.508,0.172-1.738,0.901l-8.215,25.929c-0.232,0.731,0.173,1.51,0.901,1.74
					c0.141,0.044,0.28,0.066,0.42,0.066c0.588,0,1.132-0.379,1.32-0.968l8.214-25.932C54.273,17.205,53.87,16.426,53.141,16.196z"/>
			</g>
		</g>
		<g>
			<g>
				<path fill="#63535C" d="M85.786,0.664H14.213c-3.736,0-6.776,3.041-6.776,6.776v9.847c0,0.766,0.621,1.386,1.385,1.386
					c0.765,0,1.385-0.62,1.385-1.386V7.44c0-2.209,1.797-4.005,4.006-4.005h71.573c2.209,0,4.006,1.796,4.006,4.005v47.286h-8.681
					c-0.765,0-1.386,0.621-1.386,1.385c0,0.766,0.621,1.387,1.386,1.387h8.681v2.539c0,2.207-1.797,4.006-4.006,4.006H59.948H40.051
					H14.213c-2.209,0-4.006-1.799-4.006-4.006v-2.539h66.286c0.766,0,1.385-0.621,1.385-1.387c0-0.764-0.619-1.385-1.385-1.385
					H10.208v-32.82c0-0.765-0.62-1.386-1.385-1.386c-0.765,0-1.385,0.621-1.385,1.386v38.13c0,3.738,3.04,6.775,6.776,6.775h23.74
					l-3.408,7.971H27.89c-0.766,0-1.386,0.621-1.386,1.387s0.62,1.387,1.386,1.387h44.22c0.766,0,1.385-0.621,1.385-1.387
					s-0.619-1.387-1.385-1.387h-6.656l-3.407-7.971h23.739c3.736,0,6.776-3.037,6.776-6.775V7.44
					C92.562,3.705,89.522,0.664,85.786,0.664z M62.44,74.783H37.559l2.366-5.537h20.15L62.44,74.783z"/>
			</g>
		</g>
		<g>
			<g>
				<path fill="#63535C" d="M51.151,59.673c-0.318-0.484-0.929-0.715-1.489-0.576c-0.584,0.146-1.017,0.672-1.046,1.275
					c-0.061,1.252,1.515,1.934,2.381,1.027C51.441,60.937,51.51,60.205,51.151,59.673z"/>
			</g>
		</g>
	</g>
</g>
</svg>
