<?xml version="1.0" encoding="utf-8"?>
<!-- Generator: Adobe Illustrator 16.0.0, SVG Export Plug-In . SVG Version: 6.00 Build 0)  -->
<!DOCTYPE svg PUBLIC "-//W3C//DTD SVG 1.1//EN" "http://www.w3.org/Graphics/SVG/1.1/DTD/svg11.dtd">
<svg version="1.1" id="Layer_1" xmlns="http://www.w3.org/2000/svg" xmlns:xlink="http://www.w3.org/1999/xlink" x="0px" y="0px"
	 width="95.68px" height="95.675px" viewBox="0 0 95.68 95.675" enable-background="new 0 0 95.68 95.675" xml:space="preserve">
<g>
	<g>
		<path fill="none" stroke="#E1E6EB" stroke-width="6" stroke-miterlimit="10" d="M92.68,47.838
			c0,24.766-20.078,44.837-44.842,44.837C23.072,92.675,3,72.604,3,47.838C3,23.074,23.072,3,47.838,3
			C72.602,3,92.68,23.074,92.68,47.838z"/>
		<g>
			<path fill="none" stroke="#BB438A" stroke-width="6" stroke-miterlimit="10" d="M47.838,3C72.602,3,92.68,23.074,92.68,47.838
				c0,24.766-20.078,44.837-44.842,44.837"/>
		</g>
	</g>
	<path fill-rule="evenodd" clip-rule="evenodd" fill="#63535C" d="M32.466,41.543c0,0.248-0.015,0.433,0.003,0.618
		c0.247,2.743,0.502,5.481,0.747,8.225c0.327,3.717,0.65,7.431,0.979,11.152c0.342,3.859,0.694,7.72,1.028,11.584
		c0.026,0.305,0.13,0.441,0.433,0.526c4.058,1.111,8.103,2.239,12.153,3.355c0.169,0.048,0.375,0.048,0.542,0
		c4.082-1.116,8.157-2.248,12.239-3.369c0.27-0.078,0.367-0.214,0.39-0.481c0.254-2.944,0.521-5.885,0.784-8.825
		c0.266-3.074,0.533-6.143,0.805-9.215c0.361-4.022,0.728-8.035,1.089-12.059c0.045-0.492,0.075-0.989,0.113-1.512
		C53.304,41.543,42.896,41.543,32.466,41.543z M58.866,51.993l-8.451,3.328h8.451l-1.315,12.458l-8.819,2.448l-8.881-2.338
		l-0.443-5.963h3.89l0.561,3.074l4.874,1.112l4.688-1.557l0.221-4.896H39.188l-0.339-3.891l9.086-4.114l-9.196-0.221l-0.777-3.449
		h20.904V51.993z"/>
	<g>
		<path fill-rule="evenodd" clip-rule="evenodd" fill="#63535C" d="M43.886,23.474c0,0.555,0,0.94,0,1.448c2.878,0,5.746,0,8.686,0
			c0,2.475,0,4.814,0,7.215c-3.979,0-7.947,0-11.97,0c0-0.936,0-1.854,0-2.866c2.734,0,5.438,0,8.216,0c0-0.63,0-1.173,0-1.815
			c-2.688,0-5.414,0-8.204,0c0-2.514,0-4.943,0-7.436c3.978,0,7.941,0,11.97,0c0,1.122,0,2.229,0,3.454
			C49.71,23.474,46.84,23.474,43.886,23.474z"/>
		<path fill-rule="evenodd" clip-rule="evenodd" fill="#63535C" d="M65.985,20.035c0,1.179,0,2.268,0,3.478
			c-2.928,0-5.825,0-8.763,0c0,0.522,0,0.923,0,1.471c2.912,0,5.812,0,8.748,0c0,2.47,0,4.787,0,7.171c-3.997,0-7.965,0-12.01,0
			c0-0.904,0-1.822,0-2.854c2.753,0,5.478,0,8.271,0c0-0.651,0-1.197,0-1.83c-2.747,0-5.481,0-8.276,0c0-2.518,0-4.946,0-7.435
			C57.986,20.035,61.949,20.035,65.985,20.035z"/>
		<path fill-rule="evenodd" clip-rule="evenodd" fill="#63535C" d="M30.928,23.646c0,1.876,0,3.575,0,5.41c2.71,0,5.406,0,8.17,0
			c0,1.089,0,2.042,0,3.066c-3.903,0-7.81,0-11.769,0c0-4.021,0-8.041,0-12.111c3.923,0,7.826,0,11.789,0c0,1.193,0,2.355,0,3.635
			C36.434,23.646,33.743,23.646,30.928,23.646z"/>
	</g>
</g>
</svg>
