<?xml version="1.0" encoding="utf-8"?>
<!-- Generator: Adobe Illustrator 16.0.0, SVG Export Plug-In . SVG Version: 6.00 Build 0)  -->
<!DOCTYPE svg PUBLIC "-//W3C//DTD SVG 1.1//EN" "http://www.w3.org/Graphics/SVG/1.1/DTD/svg11.dtd">
<svg version="1.1" id="Layer_1" xmlns="http://www.w3.org/2000/svg" xmlns:xlink="http://www.w3.org/1999/xlink" x="0px" y="0px"
	 width="95.669px" height="95.675px" viewBox="0 0 95.669 95.675" enable-background="new 0 0 95.669 95.675" xml:space="preserve">
<g>
	<path fill-rule="evenodd" clip-rule="evenodd" fill="#63535C" d="M62.008,20.81c0,3.997,0,7.997,0,12.07c-1.289,0-2.585,0-3.965,0
		c0-1.797,0-3.624,0-5.446c-0.073-0.036-0.148-0.068-0.224-0.1c-0.839,1.284-1.681,2.564-2.615,3.996
		c-0.906-1.379-1.757-2.67-2.749-4.178c0,2.047,0,3.847,0,5.733c-1.388,0-2.68,0-4.13,0c0-4.038,0-8.057,0-12.076
		c1.461,0,2.925,0,4.384,0c0.821,1.359,1.642,2.718,2.515,4.155c0.901-1.454,1.736-2.804,2.574-4.155
		C59.203,20.81,60.606,20.81,62.008,20.81z"/>
	<path fill-rule="evenodd" clip-rule="evenodd" fill="#63535C" d="M33.767,20.81c0,4.001,0,8.002,0,12.076c-1.396,0-2.717,0-4.14,0
		c0-1.307,0-2.606,0-3.957c-1.226,0-2.354,0-3.589,0c0,1.282,0,2.58,0,3.951c-1.426,0-2.746,0-4.2,0c0-4.023,0-8.049,0-12.07
		c1.403,0,2.809,0,4.211,0c0,1.3,0,2.601,0,3.909c1.214,0,2.354,0,3.507,0c0-1.353,0-2.63,0-3.909
		C30.961,20.81,32.365,20.81,33.767,20.81z"/>
	<path fill-rule="evenodd" clip-rule="evenodd" fill="#63535C" d="M46.748,20.81c0,1.309,0,2.616,0,4.001c-1.251,0-2.377,0-3.597,0
		c0,2.721,0,5.362,0,8.075c-1.412,0-2.731,0-4.151,0c0-2.647,0-5.29,0-8.008c-1.219,0-2.345,0-3.654,0c0-1.41,0-2.738,0-4.068
		C39.147,20.81,42.948,20.81,46.748,20.81z"/>
	<path fill-rule="evenodd" clip-rule="evenodd" fill="#63535C" d="M68.147,20.81c0,2.655,0,5.308,0,8.054c1.912,0,3.771,0,5.684,0
		c0,1.385,0,2.684,0,4.037c-3.269,0-6.493,0-9.892,0c0-4.044,0-8.069,0-12.091C65.344,20.81,66.746,20.81,68.147,20.81z"/>
	<path fill-rule="evenodd" clip-rule="evenodd" fill="#63535C" d="M32.103,41.656c10.38,0,20.736,0,31.156,0
		c-0.041,0.521-0.07,1.015-0.114,1.509c-0.361,3.998-0.727,7.997-1.086,11.998c-0.269,3.056-0.534,6.112-0.805,9.168
		c-0.258,2.929-0.523,5.855-0.776,8.787c-0.022,0.263-0.117,0.399-0.387,0.478c-4.06,1.113-8.119,2.239-12.18,3.356
		c-0.168,0.045-0.37,0.045-0.538,0c-4.032-1.113-8.061-2.235-12.095-3.346c-0.304-0.083-0.407-0.223-0.434-0.524
		c-0.335-3.842-0.682-7.685-1.021-11.527c-0.326-3.698-0.646-7.399-0.976-11.099c-0.241-2.729-0.496-5.455-0.742-8.182
		C32.09,42.088,32.103,41.903,32.103,41.656z M37.836,48.117c0.011,0.2,0.014,0.371,0.027,0.537c0.132,1.458,0.266,2.912,0.399,4.37
		c0.194,2.156,0.396,4.312,0.57,6.47c0.03,0.404,0.154,0.51,0.562,0.51c4.149-0.012,8.298-0.002,12.447,0c0.167,0,0.335,0,0.559,0
		c-0.037,0.467-0.068,0.877-0.103,1.285c-0.092,1.085-0.193,2.171-0.275,3.257c-0.024,0.33-0.162,0.496-0.49,0.577
		c-1.221,0.309-2.435,0.649-3.654,0.964c-0.153,0.042-0.337,0.047-0.492,0.005c-1.246-0.322-2.489-0.671-3.737-0.996
		c-0.249-0.064-0.359-0.165-0.369-0.429c-0.014-0.444-0.059-0.886-0.1-1.327c-0.043-0.482-0.101-0.96-0.149-1.424
		c-1.358,0-2.654,0-3.95,0c-0.009,0.079-0.021,0.122-0.018,0.163c0.168,1.901,0.341,3.801,0.5,5.703
		c0.021,0.278,0.181,0.343,0.404,0.404c2.457,0.679,4.911,1.366,7.372,2.04c0.194,0.054,0.43,0.067,0.624,0.011
		c2.469-0.674,4.936-1.368,7.403-2.04c0.274-0.072,0.373-0.217,0.395-0.476c0.113-1.371,0.237-2.74,0.362-4.112
		c0.162-1.827,0.326-3.652,0.488-5.48c0.062-0.692,0.111-1.389,0.171-2.127c-4.781,0-9.509,0-14.262,0
		c-0.119-1.32-0.236-2.601-0.355-3.931c5.005,0,9.978,0,14.977,0c0.121-1.344,0.237-2.635,0.359-3.954
		C50.921,48.117,44.399,48.117,37.836,48.117z"/>
</g>
<g>
	<g>
		<path fill="none" stroke="#E1E6EB" stroke-width="6" stroke-miterlimit="10" d="M92.674,47.838
			c0,24.766-20.077,44.837-44.842,44.837c-24.765,0-44.838-20.071-44.838-44.837C2.995,23.074,23.067,3,47.833,3
			C72.597,3,92.674,23.074,92.674,47.838z"/>
		<g>
			<path fill="none" stroke="#BB438A" stroke-width="6" stroke-miterlimit="10" d="M47.833,3c24.765,0,44.842,20.074,44.842,44.838
				c0,24.766-20.077,44.837-44.842,44.837"/>
		</g>
	</g>
</g>
</svg>
