<?xml version="1.0" encoding="utf-8"?>
<!-- Generator: Adobe Illustrator 16.0.0, SVG Export Plug-In . SVG Version: 6.00 Build 0)  -->
<!DOCTYPE svg PUBLIC "-//W3C//DTD SVG 1.1//EN" "http://www.w3.org/Graphics/SVG/1.1/DTD/svg11.dtd">
<svg version="1.1" id="Layer_1" xmlns="http://www.w3.org/2000/svg" xmlns:xlink="http://www.w3.org/1999/xlink" x="0px" y="0px"
	 width="95.68px" height="95.675px" viewBox="0 0 95.68 95.675" enable-background="new 0 0 95.68 95.675" xml:space="preserve">
<g>
	<g>
		<path fill="none" stroke="#E1E6EB" stroke-width="6" stroke-miterlimit="10" d="M92.678,47.834
			c0,24.764-20.076,44.838-44.837,44.838c-24.763,0-44.838-20.074-44.838-44.838c0-24.759,20.075-44.831,44.838-44.831
			C72.602,3.003,92.678,23.075,92.678,47.834z"/>
		<g>
			<path fill="none" stroke="#BB438A" stroke-width="6" stroke-miterlimit="10" d="M47.84,3.005
				c24.761,0,44.837,20.071,44.837,44.833"/>
		</g>
	</g>
	<text transform="matrix(1 0 0 1 29.3755 76.9062)" fill="#63535C" font-family="'Avenir-Black'" font-size="14.4654">React</text>
	<g>
		<path fill-rule="evenodd" clip-rule="evenodd" fill="#63535C" d="M61.658,47.773c0.213,2.104,0.516,4.1,0.578,6.107
			c0.039,1.16-0.176,2.381-0.525,3.498c-0.855,2.715-3.096,3.928-5.869,3.305c-2.389-0.531-4.342-1.881-6.195-3.404
			c-0.607-0.502-1.197-1.031-1.729-1.494c-1.507,1.133-2.904,2.318-4.432,3.295c-1.055,0.67-2.252,1.201-3.46,1.531
			c-2.929,0.807-5.189-0.477-6.137-3.359c-0.821-2.492-0.532-5.018-0.102-7.533c0.102-0.584,0.236-1.162,0.382-1.867
			c-0.724-0.264-1.497-0.443-2.174-0.805c-1.906-1.028-3.962-1.896-5.611-3.253c-2.72-2.232-2.64-5.294-0.107-7.742
			c1.903-1.843,4.292-2.808,6.738-3.66c0.369-0.127,0.737-0.249,0.998-0.339c-0.214-2.101-0.553-4.1-0.578-6.103
			c-0.015-1.315,0.252-2.698,0.696-3.94c0.829-2.322,3.039-3.412,5.459-2.916c2.785,0.569,4.972,2.204,7.067,3.991
			c0.391,0.333,0.76,0.683,1.004,0.901c1.938-1.345,3.741-2.708,5.657-3.887c1.432-0.88,3.066-1.354,4.783-1.032
			c2.334,0.433,3.848,2.446,4.092,5.478c0.098,1.22,0.074,2.463-0.037,3.683c-0.111,1.216-0.396,2.42-0.627,3.75
			c0.279,0.108,0.605,0.21,0.91,0.359c2.084,1.025,4.352,1.81,6.215,3.147c3.564,2.564,3.537,6.273-0.006,8.882
			c-1.631,1.201-3.602,1.945-5.443,2.859C62.689,47.486,62.107,47.619,61.658,47.773z M47.76,47.549
			c5.531-0.23,3.931,0.803,6.703-3.997c2.604-4.503,2.613-2.754-0.045-7.355c-2.682-4.645-1.232-3.875-6.63-3.875
			c-5.294-0.004-3.888-0.738-6.473,3.75c-2.744,4.772-2.754,2.909-0.006,7.669C43.942,48.309,42.398,47.319,47.76,47.549z
			 M46.371,25.527c-1.951-1.849-3.926-3.56-6.5-4.339c-2.263-0.682-3.724,0.18-4.26,2.468c-0.617,2.653-0.112,5.227,0.51,7.779
			c2.042-0.292,3.961-0.55,5.873-0.844c0.241-0.037,0.522-0.202,0.68-0.396C43.887,28.692,45.079,27.167,46.371,25.527z
			 M59.568,31.435c0.57-2.553,1.08-5.062,0.525-7.649c-0.51-2.365-1.986-3.284-4.279-2.598c-2.609,0.784-4.611,2.493-6.506,4.354
			c1.27,1.61,2.461,3.134,3.672,4.642c0.135,0.171,0.354,0.356,0.557,0.388C55.52,30.874,57.508,31.143,59.568,31.435z
			 M49.293,54.305c1.844,1.738,3.699,3.338,6.055,4.197c2.625,0.957,4.252,0.025,4.781-2.697c0.492-2.51-0.02-4.941-0.557-7.4
			c-2.059,0.283-4.049,0.547-6.035,0.844c-0.203,0.031-0.422,0.215-0.557,0.387C51.77,51.145,50.582,52.672,49.293,54.305z
			 M46.371,54.307c-1.281-1.629-2.471-3.154-3.681-4.66c-0.157-0.197-0.426-0.379-0.667-0.416c-1.947-0.293-3.899-0.553-5.845-0.82
			c-0.758,2.34-1.027,5.176-0.682,7.15c0.521,3.004,2.207,3.979,5.033,2.867C42.779,57.537,44.585,55.998,46.371,54.307z
			 M34.652,33.989c-2.502,0.722-4.907,1.6-6.879,3.354c-1.798,1.599-1.852,3.388-0.126,5.015c1.982,1.87,4.471,2.748,7.005,3.486
			c0.757-1.91,1.493-3.702,2.171-5.514c0.109-0.289,0.06-0.692-0.056-0.99C36.108,37.602,35.404,35.882,34.652,33.989z
			 M61.027,45.852c2.637-0.808,5.225-1.686,7.203-3.713c1.404-1.437,1.424-2.984,0.035-4.42c-1.998-2.056-4.609-2.949-7.254-3.738
			c-0.764,1.927-1.484,3.725-2.189,5.531c-0.078,0.201-0.137,0.477-0.064,0.667C59.488,42.049,60.246,43.915,61.027,45.852z
			 M45.056,49.521c0.998,1.191,1.856,2.211,2.793,3.33c0.95-1.152,1.782-2.168,2.741-3.33
			C48.657,49.521,46.991,49.521,45.056,49.521z M45.085,30.282c1.923,0,3.58,0,5.5,0c-0.986-1.184-1.831-2.195-2.752-3.301
			C46.907,28.092,46.066,29.105,45.085,30.282z M40.94,32.677c-1.56,0.277-2.883,0.514-4.33,0.771
			c0.526,1.41,0.987,2.636,1.53,4.092C39.134,35.815,39.968,34.362,40.94,32.677z M54.727,32.683
			c0.969,1.679,1.816,3.144,2.814,4.871c0.551-1.518,0.994-2.745,1.5-4.143C57.566,33.166,56.262,32.944,54.727,32.683z
			 M36.621,46.394c1.465,0.254,2.776,0.482,4.324,0.751c-0.98-1.696-1.817-3.142-2.811-4.857
			C37.585,43.78,37.131,45.001,36.621,46.394z M57.527,42.291c-0.996,1.724-1.836,3.188-2.818,4.889
			c1.592-0.301,2.91-0.548,4.34-0.819C58.523,44.958,58.076,43.761,57.527,42.291z"/>
		<path fill-rule="evenodd" clip-rule="evenodd" fill="#63535C" d="M51.998,39.921c-0.008,2.308-1.857,4.188-4.142,4.209
			c-2.319,0.019-4.213-1.916-4.187-4.28c0.023-2.31,1.903-4.16,4.2-4.138C50.172,35.737,52,37.602,51.998,39.921z"/>
	</g>
</g>
</svg>
