<?xml version="1.0" encoding="utf-8"?>
<!-- Generator: Adobe Illustrator 16.0.0, SVG Export Plug-In . SVG Version: 6.00 Build 0)  -->
<!DOCTYPE svg PUBLIC "-//W3C//DTD SVG 1.1//EN" "http://www.w3.org/Graphics/SVG/1.1/DTD/svg11.dtd">
<svg version="1.1" id="Layer_1" xmlns="http://www.w3.org/2000/svg" xmlns:xlink="http://www.w3.org/1999/xlink" x="0px" y="0px"
	 width="95.68px" height="95.675px" viewBox="0 0 95.68 95.675" enable-background="new 0 0 95.68 95.675" xml:space="preserve">
<g>
	<g>
		<g>
			<path fill-rule="evenodd" clip-rule="evenodd" fill="#63535C" d="M48.828,19.258c1.193,0.329,2.41,0.597,3.58,0.997
				c5.088,1.748,6.986,5.603,5.279,10.708c-1.121,3.348-3.281,5.956-6.156,7.892c-4.743,3.189-10.01,4.344-15.657,3.378
				c-1.797-0.308-3.314-1.295-4.312-2.911c-0.228-0.368-0.51-0.875-0.109-1.184c0.386-0.298,0.678,0.216,0.948,0.467
				c0.961,0.896,2.133,1.453,3.395,1.527c7.254,0.422,13.206-2.074,17.499-8.081c0.738-1.033,1.201-2.221,1.291-3.512
				c0.152-2.217-0.678-3.547-2.766-4.339c-3.178-1.203-6.429-1.012-9.638-0.244c-6.993,1.673-13.178,4.908-18.35,9.946
				c-1.516,1.479-2.629,3.245-2.981,5.395c-0.495,3.01,0.912,5.234,3.055,7.082c1.812,1.56,3.721,3.007,5.58,4.515
				c2.063,1.672,2.069,1.691,4.436,0.381c2.078-1.15,4.256-2.117,5.806-4.086c0.795-1.011,2-1.665,3.272-2.066
				c1.969-0.624,3.175,0.206,3.256,2.243c0.021,0.521,0.004,1.041,0.004,1.568c2.034-0.232,2.424,0.268,1.912,2.248
				c-0.512,1.975-0.979,3.961-1.421,5.951c-0.099,0.441-0.015,0.924-0.015,1.633c0.763-0.854,1.098-1.695,1.461-2.498
				c1.594-3.523,3.155-7.062,4.719-10.599c0.174-0.396,0.311-0.812,0.438-1.227c0.539-1.76,2.092-2.517,3.879-1.938
				c0.898,0.292,0.662,0.849,0.447,1.441c-0.85,2.323-0.795,4.591,0.504,7.048c1.594-2.873,3.4-5.423,4.23-8.475
				c0.502-1.843,2.186-2.713,3.984-2.017c0.852,0.33,0.605,0.907,0.396,1.493c-0.814,2.28-0.76,4.496,0.357,6.692
				c0.412,0.809,0.768,1.039,1.691,0.672c2.822-1.129,5.74-1.344,8.684-0.457c2.9,0.873,4.816,2.781,5.799,5.639
				c0,0.785,0,1.568,0,2.354c-0.852,1.482-1.719,2.945-3.762,3.133c0.051-0.699,0.559-0.803,0.861-1.068
				c1.559-1.369,1.861-2.996,0.859-4.785c-0.547-0.98-1.332-1.725-2.322-2.227c-3.018-1.523-6.16-1.648-9.393-0.82
				c-0.803,0.205-1.01,0.564-0.771,1.393c0.605,2.1-0.002,3.832-1.729,5.207c-0.934,0.742-1.957,1.287-3.062,1.703
				c-0.789,0.295-1.617,0.545-2.338-0.115c-0.742-0.678-0.645-1.547-0.414-2.426c0.506-1.928,1.713-3.389,3.104-4.736
				c0.281-0.273,0.836-0.457,0.506-1.037c-0.82-1.434-1.209-3.033-1.65-4.785c-1.148,1.945-2.123,3.736-3.242,5.429
				c-0.551,0.836-0.717,1.521-0.393,2.508c0.525,1.609,0.615,3.312-0.523,4.73c-1.699,2.119-4.023,2.971-6.691,2.85
				c-1.1-0.051-1.49-0.873-0.949-1.842c0.252-0.453,0.602-0.854,0.928-1.26c1.092-1.355,2.203-2.693,3.287-4.055
				c0.225-0.283,0.607-0.543,0.35-1.02c-0.867-1.594-1.477-3.289-1.939-5.074c-1.465,3.223-2.861,6.395-4.529,9.438
				c-0.728,1.33-1.333,2.75-2.407,3.861c-0.548,0.566-1.142,1.143-2.034,0.906c-0.95-0.248-1.243-1.072-1.371-1.895
				c-0.138-0.879-0.111-1.785-0.166-2.852c-0.696,1.408-1.309,2.686-1.959,3.943c-0.523,1.01-1.212,1.77-2.51,1.754
				c-1.251-0.016-1.888-0.775-2.374-1.744c-0.939-1.867-1.377-3.844-1.083-5.936c0.167-1.186,0.401-2.363,0.636-3.725
				c-1.082,0.621-2.005,1.188-2.962,1.686c-0.539,0.281-0.571,0.562-0.384,1.127c1.461,4.367,0.143,9.107-3.258,12.125
				c-1.495,1.324-3.315,1.969-5.119,2.674c-1.164,0.262-2.385,0.59-3.659,0c-1.626-0.686-2.663-1.82-2.936-3.631
				c-0.458-3.043,0.903-5.303,3.053-7.211c2.027-1.801,4.328-3.205,6.73-4.451c1.257-0.65,1.261-0.67,0.062-1.523
				c-1.309-0.936-2.636-1.848-3.951-2.773c-3.438-2.42-6.487-4.602-8.016-8.726c-0.494-1.245,0.058-3.563,0.104-3.713
				c0.994-3.118,2.911-5.636,5.281-7.794c5.411-4.922,11.814-8.038,18.787-10.07C41.168,19.721,45.614,18.929,48.828,19.258z
				 M30.799,57.99c0-0.391,0.025-0.781-0.005-1.17c-0.104-1.336-0.278-1.408-1.444-0.723c-1.387,0.812-2.695,1.738-3.948,2.738
				c-1.442,1.15-2.698,2.463-3.202,4.311c-0.242,0.889-0.468,1.857,0.307,2.564c0.758,0.693,1.725,0.438,2.596,0.174
				C28.319,64.912,30.792,61.477,30.799,57.99z M44.401,48.777c0.079-1.27-0.211-1.469-1.17-0.965
				c-0.377,0.197-0.771,0.443-1.036,0.766c-2.35,2.863-3.605,6.078-3.041,9.848c0.063,0.432,0.118,0.961,0.578,1.076
				c0.579,0.145,0.788-0.424,1.007-0.828c1.017-1.869,1.695-3.885,2.43-5.873C43.678,51.424,44.186,50.041,44.401,48.777z
				 M66.275,53.9c-0.016-0.303-0.004-0.68-0.283-0.818c-0.336-0.17-0.523,0.201-0.707,0.412c-0.748,0.854-1.338,1.801-1.691,2.887
				c-0.105,0.328-0.314,0.732,0.004,0.957c0.312,0.223,0.643-0.115,0.932-0.287C65.715,56.338,66.174,55.219,66.275,53.9z
				 M53.795,59.693c1.82-0.451,3.041-1.867,3.246-3.766C55.93,57.217,54.9,58.412,53.795,59.693z"/>
		</g>
	</g>
	<g>
		<path fill="none" stroke="#E1E6EB" stroke-width="6" stroke-miterlimit="10" d="M92.678,47.834
			c0,24.764-20.076,44.838-44.837,44.838c-24.763,0-44.838-20.074-44.838-44.838c0-24.759,20.075-44.831,44.838-44.831
			C72.602,3.003,92.678,23.075,92.678,47.834z"/>
	</g>
	<g>
		<path fill="none" stroke="#BB438A" stroke-width="6" stroke-miterlimit="10" d="M47.84,3.003
			c24.761,0,44.837,20.071,44.837,44.831c0,24.764-20.076,44.838-44.837,44.838"/>
	</g>
</g>
</svg>
