<?xml version="1.0" encoding="utf-8"?>
<!-- Generator: Adobe Illustrator 16.0.0, SVG Export Plug-In . SVG Version: 6.00 Build 0)  -->
<!DOCTYPE svg PUBLIC "-//W3C//DTD SVG 1.1//EN" "http://www.w3.org/Graphics/SVG/1.1/DTD/svg11.dtd">
<svg version="1.1" id="Layer_1" xmlns="http://www.w3.org/2000/svg" xmlns:xlink="http://www.w3.org/1999/xlink" x="0px" y="0px"
	 width="95.68px" height="95.675px" viewBox="0 0 95.68 95.675" enable-background="new 0 0 95.68 95.675" xml:space="preserve">
<g>
	<g>
		<path fill="none" stroke="#E1E6EB" stroke-width="6" stroke-miterlimit="10" d="M92.678,47.834
			c0,24.764-20.076,44.838-44.837,44.838c-24.763,0-44.838-20.074-44.838-44.838c0-24.759,20.075-44.831,44.838-44.831
			C72.602,3.003,92.678,23.075,92.678,47.834z"/>
		<g>
			<path fill="none" stroke="#BB438A" stroke-width="6" stroke-miterlimit="10" d="M47.84,3.005
				c24.761,0,44.837,20.071,44.837,44.833c0,24.766-20.076,44.834-44.837,44.834"/>
		</g>
	</g>
	<path fill-rule="evenodd" clip-rule="evenodd" fill="#63535C" d="M51.979,19.366c-0.578,3.019,0.148,5.646,2.377,7.804
		c1.215,1.177,2.623,2.061,4.254,2.555c2.109,0.646,4.154,0.395,6.131-0.539c0.066-0.033,0.137-0.063,0.205-0.092
		c0.006-0.002,0.018,0.002,0.062,0.017c-0.246,0.445-0.574,0.825-0.934,1.171c-1.141,1.094-2.535,1.602-4.098,1.665
		c-1.984,0.083-3.877-0.276-5.541-1.404c-2.154-1.458-3.506-3.492-3.979-6.046c-0.334-1.797,0.238-3.408,1.291-4.865
		c0.062-0.079,0.158-0.144,0.166-0.265C51.934,19.366,51.955,19.366,51.979,19.366z"/>
	<path fill-rule="evenodd" clip-rule="evenodd" fill="#63535C" d="M22.66,76.746c-0.369-0.045-0.344-0.256-0.264-0.539
		c0.133-0.463,0.24-0.93,0.334-1.406c0.044-0.219,0.148-0.307,0.361-0.322c0.219-0.014,0.438-0.08,0.653-0.062
		c0.314,0.018,0.46-0.143,0.598-0.398c0.565-1.025,0.806-2.145,1.016-3.275c0.219-1.193,0.392-2.4,0.812-3.549
		c0.071-0.193,0.155-0.268,0.365-0.26c0.666,0.014,1.334,0.01,2.005,0.002c0.156,0,0.226,0.025,0.187,0.213
		c-0.59,2.5-1.049,5.031-1.775,7.498c-0.292,0.994-0.819,1.766-1.911,2.006c-0.124,0.029-0.278-0.043-0.376,0.094
		C23.996,76.746,23.329,76.746,22.66,76.746z"/>
	<path fill-rule="evenodd" clip-rule="evenodd" fill="#63535C" d="M65.633,44.146c-0.199,0.546-0.482,1.052-0.801,1.529
		c-2.568,3.84-6.131,6.221-10.672,6.991c-4.965,0.84-9.657-0.002-13.895-2.807c-4.404-2.913-7.395-6.884-8.645-12.055
		c-0.783-3.244-0.666-6.441,0.767-9.521c0.602-1.289,1.397-2.448,2.376-3.486c0.096-0.101,0.182-0.185,0.349-0.198
		c-0.142,0.745-0.297,1.479-0.402,2.223c-0.914,6.449,0.904,11.918,5.851,16.251c2.027,1.772,4.271,3.228,6.766,4.257
		c2.356,0.969,4.829,1.34,7.368,1.273c2.436-0.061,4.77-0.57,6.967-1.632C63.141,46.259,64.455,45.303,65.633,44.146z"/>
	<path fill-rule="evenodd" clip-rule="evenodd" fill="#63535C" d="M66.633,34.927c-0.998,2.549-2.729,4.417-5.193,5.562
		c-5.277,2.434-11.17,1.451-15.426-2.537c-1.795-1.682-3.207-3.62-3.9-6.004c-0.738-2.54-0.802-5.086,0.221-7.58
		c0.449-1.091,1.111-2.059,1.94-3.004c-0.085,0.556-0.168,1.041-0.23,1.524c-0.451,3.499,0.079,6.773,2.22,9.672
		c1.244,1.688,2.85,2.97,4.647,4.02c1.602,0.938,3.271,1.689,5.125,1.98c4.086,0.629,7.592-0.489,10.473-3.484
		C66.553,35.031,66.588,34.978,66.633,34.927z"/>
	<path fill-rule="evenodd" clip-rule="evenodd" fill="#63535C" d="M36.299,73.088c-1.242,0.014-2.486,0.047-3.728-0.062
		c-1.584-0.135-2.745-1.254-2.921-2.846c-0.249-2.289,0.263-4.393,1.651-6.242c1.243-1.662,2.989-2.307,5.017-2.207
		c1.504,0.074,2.772,0.639,3.585,1.98c0.682,1.135,0.712,2.348,0.364,3.594c-0.299,1.096-0.656,2.174-1.062,3.23
		c-0.087,0.227-0.069,0.328,0.196,0.324c0.242-0.006,0.486,0.02,0.728,0.016c0.148,0,0.21,0.033,0.168,0.193
		c-0.158,0.625-0.308,1.25-0.453,1.875c-0.043,0.189-0.185,0.143-0.297,0.143C38.463,73.088,37.38,73.088,36.299,73.088z
		 M35.127,70.811c0.482,0,0.884-0.01,1.289,0.004c0.161,0.008,0.223-0.053,0.261-0.197c0.368-1.406,0.812-2.795,1.102-4.225
		c0.151-0.752-0.18-1.574-0.798-1.963c-1.042-0.658-3.079-0.457-3.745,1.086c-0.485,1.131-0.771,2.312-0.884,3.527
		c-0.08,0.875,0.387,1.484,1.238,1.691C34.125,70.859,34.666,70.787,35.127,70.811z"/>
	<path fill-rule="evenodd" clip-rule="evenodd" fill="#63535C" d="M55.588,69.498c-0.863,0-1.73,0.006-2.594-0.002
		c-0.197-0.004-0.303,0.029-0.348,0.26c-0.131,0.637,0.154,1.047,0.828,1.104c0.502,0.045,1.01,0.068,1.516,0.078
		c0.908,0.023,1.816,0.033,2.727,0.035c0.207,0,0.254,0.061,0.211,0.258c-0.129,0.557-0.246,1.121-0.367,1.678
		c-0.021,0.111-0.062,0.18-0.205,0.18c-1.744-0.012-3.492,0.152-5.238-0.062c-1.391-0.17-2.186-1.125-2.062-2.512
		c0.117-1.271,0.385-2.514,0.828-3.721c0.357-0.979,0.998-1.695,1.918-2.16c1.396-0.703,2.857-0.928,4.363-0.395
		c1.189,0.418,1.758,1.361,1.686,2.623c-0.049,0.828-0.254,1.631-0.373,2.449c-0.027,0.203-0.154,0.188-0.299,0.188
		C57.312,69.498,56.451,69.498,55.588,69.498z M53.088,67.555c1.006,0,1.984-0.01,2.961,0.004c0.188,0.002,0.234-0.072,0.252-0.23
		c0.062-0.512-0.211-0.93-0.707-1.08C54.436,65.908,53.523,66.367,53.088,67.555z"/>
	<path fill-rule="evenodd" clip-rule="evenodd" fill="#63535C" d="M50.178,64.234c-0.604,2.891-1.209,5.754-1.805,8.619
		c-0.036,0.17-0.104,0.236-0.293,0.236c-1.522-0.014-3.043,0.006-4.563-0.021c-1.206-0.02-1.968-0.615-2.188-1.615
		c-0.123-0.566-0.066-1.123,0.016-1.68c0.263-1.785,0.616-3.551,1.013-5.309c0.042-0.186,0.108-0.246,0.293-0.244
		c0.599,0.012,1.197,0.012,1.799,0c0.2-0.002,0.26,0.029,0.244,0.268c-0.076,1.223-0.46,2.385-0.697,3.58
		c-0.165,0.828-0.241,1.658-0.14,2.504c0.022,0.217,0.111,0.275,0.325,0.273c0.654-0.014,1.312-0.008,1.97-0.004
		c0.178,0.004,0.26-0.041,0.303-0.234c0.431-2.01,0.876-4.014,1.309-6.021c0.056-0.256,0.132-0.379,0.438-0.361
		C48.854,64.254,49.508,64.234,50.178,64.234z"/>
	<path fill-rule="evenodd" clip-rule="evenodd" fill="#63535C" d="M66.186,73.045c0.652-1.184,0.545-2.35,0.211-3.527
		c-0.211-0.738-0.463-1.463-0.631-2.213c-0.059-0.252-0.033-0.35,0.258-0.342c0.68,0.016,1.359,0.014,2.037,0
		c0.213-0.004,0.303,0.061,0.355,0.266c0.092,0.361,0.211,0.719,0.344,1.139c0.316-0.453,0.607-0.865,0.887-1.271
		c0.906-1.316,1.818-2.627,2.713-3.949c0.137-0.199,0.273-0.266,0.504-0.264c0.836,0.014,1.678,0.006,2.561,0.006
		c-0.285,0.553-0.613,1.029-0.947,1.508c-1.064,1.516-2.303,2.896-3.387,4.395c-0.906,1.252-1.693,2.566-2.174,4.047
		c-0.043,0.129-0.086,0.213-0.254,0.211C67.859,73.041,67.055,73.045,66.186,73.045z"/>
	<path fill-rule="evenodd" clip-rule="evenodd" fill="#63535C" d="M63.662,64.195c0.92,0,1.84-0.027,2.762,0.006
		c1.357,0.049,1.482,0.719,1.654,1.561c0.123,0.613,0.107,0.615-0.508,0.615c-1.488,0-2.975,0.01-4.459-0.01
		c-0.285-0.002-0.361,0.098-0.414,0.346c-0.428,2.033-0.869,4.064-1.293,6.096c-0.045,0.225-0.133,0.277-0.34,0.271
		c-0.607-0.016-1.221-0.012-1.832,0c-0.219,0.006-0.291-0.023-0.234-0.281c0.6-2.785,1.186-5.57,1.775-8.354
		c0.037-0.195,0.104-0.283,0.328-0.277c0.852,0.018,1.705,0.002,2.559,0.002C63.66,64.178,63.662,64.186,63.662,64.195z"/>
	<path fill-rule="evenodd" clip-rule="evenodd" fill="#63535C" d="M26.334,66.248c0.147-0.643,0.282-1.236,0.411-1.83
		c0.035-0.16,0.105-0.223,0.281-0.221c0.69,0.012,1.379,0.012,2.069,0c0.211-0.002,0.229,0.082,0.19,0.252
		c-0.115,0.527-0.229,1.051-0.335,1.578c-0.034,0.137-0.072,0.227-0.244,0.221C27.926,66.242,27.144,66.248,26.334,66.248z"/>
</g>
</svg>
