<?xml version="1.0" encoding="utf-8"?>
<!-- Generator: Adobe Illustrator 16.0.0, SVG Export Plug-In . SVG Version: 6.00 Build 0)  -->
<!DOCTYPE svg PUBLIC "-//W3C//DTD SVG 1.1//EN" "http://www.w3.org/Graphics/SVG/1.1/DTD/svg11.dtd">
<svg version="1.1" id="Layer_1" xmlns="http://www.w3.org/2000/svg" xmlns:xlink="http://www.w3.org/1999/xlink" x="0px" y="0px"
	 width="76.275px" height="76.282px" viewBox="0 0 76.275 76.282" enable-background="new 0 0 76.275 76.282" xml:space="preserve">
<g>
	<g>
		<path fill="#A91F6A" stroke="#A91F6A" stroke-miterlimit="10" d="M59.686,58.088V15.439h1.954v42.649H59.686z M32.951,58.088
			L54.804,37.74L30.872,15.439h2.796L57.605,37.74L35.744,58.088H32.951z"/>
		<path fill="#A91F6A" stroke="#A91F6A" stroke-miterlimit="10" d="M16.533,43.404V15.439h1.955v42.649h-1.955V43.404
			 M42.429,58.088L20.567,37.74l23.938-22.301h2.798L23.369,37.74l21.854,20.349H42.429z"/>
		<polyline fill="none" stroke="#A91F6A" stroke-width="2.5" stroke-miterlimit="10" points="68.597,53.743 68.597,68.575 
			17.744,68.575 		"/>
		<polyline fill="none" stroke="#A91F6A" stroke-width="2.5" stroke-miterlimit="10" points="7.677,18.593 7.677,6.708 
			60.569,6.708 		"/>
	</g>
	<path fill="#A91F6A" stroke="#A91F6A" stroke-width="2" stroke-miterlimit="10" d="M38.105,43.693h-1.571V32.589h1.571
		c1.573,0,2.906,0.56,3.997,1.682c1.092,1.121,1.639,2.41,1.639,3.87s-0.547,2.749-1.639,3.87
		C41.011,43.13,39.678,43.693,38.105,43.693z M38.105,43.216c1.432,0,2.646-0.51,3.646-1.529c0.999-1.021,1.499-2.201,1.499-3.547
		c0-1.344-0.5-2.524-1.499-3.545c-1-1.02-2.215-1.53-3.646-1.53h-1.081v10.149h1.081V43.216z"/>
</g>
</svg>
