<?xml version="1.0" encoding="utf-8"?>
<!-- Generator: Adobe Illustrator 16.0.0, SVG Export Plug-In . SVG Version: 6.00 Build 0)  -->
<!DOCTYPE svg PUBLIC "-//W3C//DTD SVG 1.1//EN" "http://www.w3.org/Graphics/SVG/1.1/DTD/svg11.dtd">
<svg version="1.1" id="Layer_1" xmlns="http://www.w3.org/2000/svg" xmlns:xlink="http://www.w3.org/1999/xlink" x="0px" y="0px"
	 width="76.275px" height="76.282px" viewBox="0 0 76.275 76.282" enable-background="new 0 0 76.275 76.282" xml:space="preserve">
<path fill="none" stroke="#A91F6A" stroke-width="2" stroke-miterlimit="10" d="M73.872,37.94c0,19.846-16.088,35.938-35.937,35.938
	C18.089,73.877,2,57.786,2,37.94C2,18.096,18.089,2,37.935,2C57.784,2,73.872,18.096,73.872,37.94z"/>
<g>
	<path fill="#A91F6A" stroke="#A91F6A" stroke-miterlimit="10" d="M19.999,58.225h38.314v1.756H19.999V58.225z M19.999,34.206
		L38.278,53.84l20.035-21.502v2.512L38.278,56.356L19.999,36.715V34.206z"/>
	<path fill="#A91F6A" stroke="#A91F6A" stroke-miterlimit="10" d="M58.273,28.464v5.412H20.04v-5.412
		c0-5.42,1.929-10.008,5.79-13.768c3.86-3.761,8.3-5.642,13.326-5.642c5.028,0,9.471,1.881,13.33,5.642
		C56.342,18.456,58.273,23.044,58.273,28.464z M56.632,28.464c0-4.931-1.75-9.116-5.264-12.561
		c-3.516-3.438-7.584-5.159-12.213-5.159c-4.627,0-8.691,1.722-12.205,5.159c-3.511,3.444-5.271,7.63-5.271,12.561v3.723h34.952
		V28.464z"/>
</g>
</svg>
