<?xml version="1.0" encoding="utf-8"?>
<!-- Generator: Adobe Illustrator 16.0.0, SVG Export Plug-In . SVG Version: 6.00 Build 0)  -->
<!DOCTYPE svg PUBLIC "-//W3C//DTD SVG 1.1//EN" "http://www.w3.org/Graphics/SVG/1.1/DTD/svg11.dtd">
<svg version="1.1" id="Layer_1" xmlns="http://www.w3.org/2000/svg" xmlns:xlink="http://www.w3.org/1999/xlink" x="0px" y="0px"
	 width="73.872px" height="73.878px" viewBox="0 0 73.872 73.878" enable-background="new 0 0 73.872 73.878" xml:space="preserve">
<rect x="6.476" y="1.505" fill="#A91F6A" width="60.92" height="70.867"/>
<g>
	<g>
		<path fill="#FFFFFF" stroke="#FFFFFF" stroke-miterlimit="10" d="M58.484,56.886V14.237h1.955v42.649H58.484z M31.75,56.886
			l21.854-20.349L29.67,14.237h2.796l23.938,22.301L34.542,56.886H31.75z"/>
		<path fill="#FFFFFF" stroke="#FFFFFF" stroke-miterlimit="10" d="M15.332,42.202V14.237h1.955v42.649h-1.955V42.202
			 M41.228,56.886L19.366,36.538l23.937-22.301h2.799L22.167,36.538l21.854,20.349H41.228z"/>
	</g>
	<path fill="#FFFFFF" stroke="#FFFFFF" stroke-width="2" stroke-miterlimit="10" d="M36.904,42.491h-1.571V31.387h1.571
		c1.572,0,2.906,0.561,3.996,1.682c1.092,1.121,1.639,2.411,1.639,3.87c0,1.46-0.547,2.749-1.639,3.87
		C39.81,41.928,38.476,42.491,36.904,42.491z M36.904,42.014c1.432,0,2.645-0.51,3.646-1.529c0.998-1.021,1.498-2.201,1.498-3.547
		c0-1.344-0.5-2.523-1.498-3.544c-1-1.02-2.215-1.53-3.646-1.53h-1.081v10.148h1.081V42.014z"/>
</g>
</svg>
